<?xml version="1.0" encoding="utf-8" standalone="no"?>
<!DOCTYPE svg PUBLIC "-//W3C//DTD SVG 1.1//EN"
  "http://www.w3.org/Graphics/SVG/1.1/DTD/svg11.dtd">
<svg xmlns:xlink="http://www.w3.org/1999/xlink" width="1152pt" height="576pt" viewBox="0 0 1152 576" xmlns="http://www.w3.org/2000/svg" version="1.1">
 <metadata>
  <rdf:RDF xmlns:dc="http://purl.org/dc/elements/1.1/" xmlns:cc="http://creativecommons.org/ns#" xmlns:rdf="http://www.w3.org/1999/02/22-rdf-syntax-ns#">
   <cc:Work>
    <dc:type rdf:resource="http://purl.org/dc/dcmitype/StillImage"/>
    <dc:date>2022-08-22T17:12:29.256858</dc:date>
    <dc:format>image/svg+xml</dc:format>
    <dc:creator>
     <cc:Agent>
      <dc:title>Matplotlib v3.5.1, https://matplotlib.org/</dc:title>
     </cc:Agent>
    </dc:creator>
   </cc:Work>
  </rdf:RDF>
 </metadata>
 <defs>
  <style type="text/css">*{stroke-linejoin: round; stroke-linecap: butt}</style>
 </defs>
 <g id="figure_1">
  <g id="patch_1">
   <path d="M 0 576 
L 1152 576 
L 1152 0 
L 0 0 
z
" style="fill: #ffffff"/>
  </g>
  <g id="axes_1">
   <g id="patch_2">
    <path d="M 144 512.64 
L 1036.8 512.64 
L 1036.8 69.12 
L 144 69.12 
z
" style="fill: #eeeeee"/>
   </g>
   <g id="matplotlib.axis_1">
    <g id="xtick_1">
     <g id="line2d_1">
      <path d="M 144 512.64 
L 144 69.12 
" clip-path="url(#pf2186ac684)" style="fill: none; stroke-dasharray: 1.85,0.8; stroke-dashoffset: 0; stroke: #b2b2b2; stroke-width: 0.5"/>
     </g>
     <g id="line2d_2">
      <defs>
       <path id="mdb39932a6b" d="M 0 0 
L 0 -3.5 
" style="stroke: #555555; stroke-width: 0.8"/>
      </defs>
      <g>
       <use xlink:href="#mdb39932a6b" x="144" y="512.64" style="fill: #555555; stroke: #555555; stroke-width: 0.8"/>
      </g>
     </g>
     <g id="text_1">
      <!-- 1880 -->
      <g style="fill: #555555" transform="translate(131.275 523.738438)scale(0.1 -0.1)">
       <defs>
        <path id="DejaVuSans-31" d="M 794 531 
L 1825 531 
L 1825 4091 
L 703 3866 
L 703 4441 
L 1819 4666 
L 2450 4666 
L 2450 531 
L 3481 531 
L 3481 0 
L 794 0 
L 794 531 
z
" transform="scale(0.015625)"/>
        <path id="DejaVuSans-38" d="M 2034 2216 
Q 1584 2216 1326 1975 
Q 1069 1734 1069 1313 
Q 1069 891 1326 650 
Q 1584 409 2034 409 
Q 2484 409 2743 651 
Q 3003 894 3003 1313 
Q 3003 1734 2745 1975 
Q 2488 2216 2034 2216 
z
M 1403 2484 
Q 997 2584 770 2862 
Q 544 3141 544 3541 
Q 544 4100 942 4425 
Q 1341 4750 2034 4750 
Q 2731 4750 3128 4425 
Q 3525 4100 3525 3541 
Q 3525 3141 3298 2862 
Q 3072 2584 2669 2484 
Q 3125 2378 3379 2068 
Q 3634 1759 3634 1313 
Q 3634 634 3220 271 
Q 2806 -91 2034 -91 
Q 1263 -91 848 271 
Q 434 634 434 1313 
Q 434 1759 690 2068 
Q 947 2378 1403 2484 
z
M 1172 3481 
Q 1172 3119 1398 2916 
Q 1625 2713 2034 2713 
Q 2441 2713 2670 2916 
Q 2900 3119 2900 3481 
Q 2900 3844 2670 4047 
Q 2441 4250 2034 4250 
Q 1625 4250 1398 4047 
Q 1172 3844 1172 3481 
z
" transform="scale(0.015625)"/>
        <path id="DejaVuSans-30" d="M 2034 4250 
Q 1547 4250 1301 3770 
Q 1056 3291 1056 2328 
Q 1056 1369 1301 889 
Q 1547 409 2034 409 
Q 2525 409 2770 889 
Q 3016 1369 3016 2328 
Q 3016 3291 2770 3770 
Q 2525 4250 2034 4250 
z
M 2034 4750 
Q 2819 4750 3233 4129 
Q 3647 3509 3647 2328 
Q 3647 1150 3233 529 
Q 2819 -91 2034 -91 
Q 1250 -91 836 529 
Q 422 1150 422 2328 
Q 422 3509 836 4129 
Q 1250 4750 2034 4750 
z
" transform="scale(0.015625)"/>
       </defs>
       <use xlink:href="#DejaVuSans-31"/>
       <use xlink:href="#DejaVuSans-38" x="63.623047"/>
       <use xlink:href="#DejaVuSans-38" x="127.246094"/>
       <use xlink:href="#DejaVuSans-30" x="190.869141"/>
      </g>
     </g>
    </g>
    <g id="xtick_2">
     <g id="line2d_3">
      <path d="M 274.404175 512.64 
L 274.404175 69.12 
" clip-path="url(#pf2186ac684)" style="fill: none; stroke-dasharray: 1.85,0.8; stroke-dashoffset: 0; stroke: #b2b2b2; stroke-width: 0.5"/>
     </g>
     <g id="line2d_4">
      <g>
       <use xlink:href="#mdb39932a6b" x="274.404175" y="512.64" style="fill: #555555; stroke: #555555; stroke-width: 0.8"/>
      </g>
     </g>
     <g id="text_2">
      <!-- 1900 -->
      <g style="fill: #555555" transform="translate(261.679175 523.738438)scale(0.1 -0.1)">
       <defs>
        <path id="DejaVuSans-39" d="M 703 97 
L 703 672 
Q 941 559 1184 500 
Q 1428 441 1663 441 
Q 2288 441 2617 861 
Q 2947 1281 2994 2138 
Q 2813 1869 2534 1725 
Q 2256 1581 1919 1581 
Q 1219 1581 811 2004 
Q 403 2428 403 3163 
Q 403 3881 828 4315 
Q 1253 4750 1959 4750 
Q 2769 4750 3195 4129 
Q 3622 3509 3622 2328 
Q 3622 1225 3098 567 
Q 2575 -91 1691 -91 
Q 1453 -91 1209 -44 
Q 966 3 703 97 
z
M 1959 2075 
Q 2384 2075 2632 2365 
Q 2881 2656 2881 3163 
Q 2881 3666 2632 3958 
Q 2384 4250 1959 4250 
Q 1534 4250 1286 3958 
Q 1038 3666 1038 3163 
Q 1038 2656 1286 2365 
Q 1534 2075 1959 2075 
z
" transform="scale(0.015625)"/>
       </defs>
       <use xlink:href="#DejaVuSans-31"/>
       <use xlink:href="#DejaVuSans-39" x="63.623047"/>
       <use xlink:href="#DejaVuSans-30" x="127.246094"/>
       <use xlink:href="#DejaVuSans-30" x="190.869141"/>
      </g>
     </g>
    </g>
    <g id="xtick_3">
     <g id="line2d_5">
      <path d="M 404.790498 512.64 
L 404.790498 69.12 
" clip-path="url(#pf2186ac684)" style="fill: none; stroke-dasharray: 1.85,0.8; stroke-dashoffset: 0; stroke: #b2b2b2; stroke-width: 0.5"/>
     </g>
     <g id="line2d_6">
      <g>
       <use xlink:href="#mdb39932a6b" x="404.790498" y="512.64" style="fill: #555555; stroke: #555555; stroke-width: 0.8"/>
      </g>
     </g>
     <g id="text_3">
      <!-- 1920 -->
      <g style="fill: #555555" transform="translate(392.065498 523.738438)scale(0.1 -0.1)">
       <defs>
        <path id="DejaVuSans-32" d="M 1228 531 
L 3431 531 
L 3431 0 
L 469 0 
L 469 531 
Q 828 903 1448 1529 
Q 2069 2156 2228 2338 
Q 2531 2678 2651 2914 
Q 2772 3150 2772 3378 
Q 2772 3750 2511 3984 
Q 2250 4219 1831 4219 
Q 1534 4219 1204 4116 
Q 875 4013 500 3803 
L 500 4441 
Q 881 4594 1212 4672 
Q 1544 4750 1819 4750 
Q 2544 4750 2975 4387 
Q 3406 4025 3406 3419 
Q 3406 3131 3298 2873 
Q 3191 2616 2906 2266 
Q 2828 2175 2409 1742 
Q 1991 1309 1228 531 
z
" transform="scale(0.015625)"/>
       </defs>
       <use xlink:href="#DejaVuSans-31"/>
       <use xlink:href="#DejaVuSans-39" x="63.623047"/>
       <use xlink:href="#DejaVuSans-32" x="127.246094"/>
       <use xlink:href="#DejaVuSans-30" x="190.869141"/>
      </g>
     </g>
    </g>
    <g id="xtick_4">
     <g id="line2d_7">
      <path d="M 535.194673 512.64 
L 535.194673 69.12 
" clip-path="url(#pf2186ac684)" style="fill: none; stroke-dasharray: 1.85,0.8; stroke-dashoffset: 0; stroke: #b2b2b2; stroke-width: 0.5"/>
     </g>
     <g id="line2d_8">
      <g>
       <use xlink:href="#mdb39932a6b" x="535.194673" y="512.64" style="fill: #555555; stroke: #555555; stroke-width: 0.8"/>
      </g>
     </g>
     <g id="text_4">
      <!-- 1940 -->
      <g style="fill: #555555" transform="translate(522.469673 523.738438)scale(0.1 -0.1)">
       <defs>
        <path id="DejaVuSans-34" d="M 2419 4116 
L 825 1625 
L 2419 1625 
L 2419 4116 
z
M 2253 4666 
L 3047 4666 
L 3047 1625 
L 3713 1625 
L 3713 1100 
L 3047 1100 
L 3047 0 
L 2419 0 
L 2419 1100 
L 313 1100 
L 313 1709 
L 2253 4666 
z
" transform="scale(0.015625)"/>
       </defs>
       <use xlink:href="#DejaVuSans-31"/>
       <use xlink:href="#DejaVuSans-39" x="63.623047"/>
       <use xlink:href="#DejaVuSans-34" x="127.246094"/>
       <use xlink:href="#DejaVuSans-30" x="190.869141"/>
      </g>
     </g>
    </g>
    <g id="xtick_5">
     <g id="line2d_9">
      <path d="M 665.598848 512.64 
L 665.598848 69.12 
" clip-path="url(#pf2186ac684)" style="fill: none; stroke-dasharray: 1.85,0.8; stroke-dashoffset: 0; stroke: #b2b2b2; stroke-width: 0.5"/>
     </g>
     <g id="line2d_10">
      <g>
       <use xlink:href="#mdb39932a6b" x="665.598848" y="512.64" style="fill: #555555; stroke: #555555; stroke-width: 0.8"/>
      </g>
     </g>
     <g id="text_5">
      <!-- 1960 -->
      <g style="fill: #555555" transform="translate(652.873848 523.738438)scale(0.1 -0.1)">
       <defs>
        <path id="DejaVuSans-36" d="M 2113 2584 
Q 1688 2584 1439 2293 
Q 1191 2003 1191 1497 
Q 1191 994 1439 701 
Q 1688 409 2113 409 
Q 2538 409 2786 701 
Q 3034 994 3034 1497 
Q 3034 2003 2786 2293 
Q 2538 2584 2113 2584 
z
M 3366 4563 
L 3366 3988 
Q 3128 4100 2886 4159 
Q 2644 4219 2406 4219 
Q 1781 4219 1451 3797 
Q 1122 3375 1075 2522 
Q 1259 2794 1537 2939 
Q 1816 3084 2150 3084 
Q 2853 3084 3261 2657 
Q 3669 2231 3669 1497 
Q 3669 778 3244 343 
Q 2819 -91 2113 -91 
Q 1303 -91 875 529 
Q 447 1150 447 2328 
Q 447 3434 972 4092 
Q 1497 4750 2381 4750 
Q 2619 4750 2861 4703 
Q 3103 4656 3366 4563 
z
" transform="scale(0.015625)"/>
       </defs>
       <use xlink:href="#DejaVuSans-31"/>
       <use xlink:href="#DejaVuSans-39" x="63.623047"/>
       <use xlink:href="#DejaVuSans-36" x="127.246094"/>
       <use xlink:href="#DejaVuSans-30" x="190.869141"/>
      </g>
     </g>
    </g>
    <g id="xtick_6">
     <g id="line2d_11">
      <path d="M 796.003023 512.64 
L 796.003023 69.12 
" clip-path="url(#pf2186ac684)" style="fill: none; stroke-dasharray: 1.85,0.8; stroke-dashoffset: 0; stroke: #b2b2b2; stroke-width: 0.5"/>
     </g>
     <g id="line2d_12">
      <g>
       <use xlink:href="#mdb39932a6b" x="796.003023" y="512.64" style="fill: #555555; stroke: #555555; stroke-width: 0.8"/>
      </g>
     </g>
     <g id="text_6">
      <!-- 1980 -->
      <g style="fill: #555555" transform="translate(783.278023 523.738438)scale(0.1 -0.1)">
       <use xlink:href="#DejaVuSans-31"/>
       <use xlink:href="#DejaVuSans-39" x="63.623047"/>
       <use xlink:href="#DejaVuSans-38" x="127.246094"/>
       <use xlink:href="#DejaVuSans-30" x="190.869141"/>
      </g>
     </g>
    </g>
    <g id="xtick_7">
     <g id="line2d_13">
      <path d="M 926.407198 512.64 
L 926.407198 69.12 
" clip-path="url(#pf2186ac684)" style="fill: none; stroke-dasharray: 1.85,0.8; stroke-dashoffset: 0; stroke: #b2b2b2; stroke-width: 0.5"/>
     </g>
     <g id="line2d_14">
      <g>
       <use xlink:href="#mdb39932a6b" x="926.407198" y="512.64" style="fill: #555555; stroke: #555555; stroke-width: 0.8"/>
      </g>
     </g>
     <g id="text_7">
      <!-- 2000 -->
      <g style="fill: #555555" transform="translate(913.682198 523.738438)scale(0.1 -0.1)">
       <use xlink:href="#DejaVuSans-32"/>
       <use xlink:href="#DejaVuSans-30" x="63.623047"/>
       <use xlink:href="#DejaVuSans-30" x="127.246094"/>
       <use xlink:href="#DejaVuSans-30" x="190.869141"/>
      </g>
     </g>
    </g>
    <g id="text_8">
     <!-- Date -->
     <g style="fill: #555555" transform="translate(576.059062 538.93625)scale(0.12 -0.12)">
      <defs>
       <path id="DejaVuSans-44" d="M 1259 4147 
L 1259 519 
L 2022 519 
Q 2988 519 3436 956 
Q 3884 1394 3884 2338 
Q 3884 3275 3436 3711 
Q 2988 4147 2022 4147 
L 1259 4147 
z
M 628 4666 
L 1925 4666 
Q 3281 4666 3915 4102 
Q 4550 3538 4550 2338 
Q 4550 1131 3912 565 
Q 3275 0 1925 0 
L 628 0 
L 628 4666 
z
" transform="scale(0.015625)"/>
       <path id="DejaVuSans-61" d="M 2194 1759 
Q 1497 1759 1228 1600 
Q 959 1441 959 1056 
Q 959 750 1161 570 
Q 1363 391 1709 391 
Q 2188 391 2477 730 
Q 2766 1069 2766 1631 
L 2766 1759 
L 2194 1759 
z
M 3341 1997 
L 3341 0 
L 2766 0 
L 2766 531 
Q 2569 213 2275 61 
Q 1981 -91 1556 -91 
Q 1019 -91 701 211 
Q 384 513 384 1019 
Q 384 1609 779 1909 
Q 1175 2209 1959 2209 
L 2766 2209 
L 2766 2266 
Q 2766 2663 2505 2880 
Q 2244 3097 1772 3097 
Q 1472 3097 1187 3025 
Q 903 2953 641 2809 
L 641 3341 
Q 956 3463 1253 3523 
Q 1550 3584 1831 3584 
Q 2591 3584 2966 3190 
Q 3341 2797 3341 1997 
z
" transform="scale(0.015625)"/>
       <path id="DejaVuSans-74" d="M 1172 4494 
L 1172 3500 
L 2356 3500 
L 2356 3053 
L 1172 3053 
L 1172 1153 
Q 1172 725 1289 603 
Q 1406 481 1766 481 
L 2356 481 
L 2356 0 
L 1766 0 
Q 1100 0 847 248 
Q 594 497 594 1153 
L 594 3053 
L 172 3053 
L 172 3500 
L 594 3500 
L 594 4494 
L 1172 4494 
z
" transform="scale(0.015625)"/>
       <path id="DejaVuSans-65" d="M 3597 1894 
L 3597 1613 
L 953 1613 
Q 991 1019 1311 708 
Q 1631 397 2203 397 
Q 2534 397 2845 478 
Q 3156 559 3463 722 
L 3463 178 
Q 3153 47 2828 -22 
Q 2503 -91 2169 -91 
Q 1331 -91 842 396 
Q 353 884 353 1716 
Q 353 2575 817 3079 
Q 1281 3584 2069 3584 
Q 2775 3584 3186 3129 
Q 3597 2675 3597 1894 
z
M 3022 2063 
Q 3016 2534 2758 2815 
Q 2500 3097 2075 3097 
Q 1594 3097 1305 2825 
Q 1016 2553 972 2059 
L 3022 2063 
z
" transform="scale(0.015625)"/>
      </defs>
      <use xlink:href="#DejaVuSans-44"/>
      <use xlink:href="#DejaVuSans-61" x="77.001953"/>
      <use xlink:href="#DejaVuSans-74" x="138.28125"/>
      <use xlink:href="#DejaVuSans-65" x="177.490234"/>
     </g>
    </g>
   </g>
   <g id="matplotlib.axis_2">
    <g id="ytick_1">
     <g id="line2d_15">
      <path d="M 144 507.387452 
L 1036.8 507.387452 
" clip-path="url(#pf2186ac684)" style="fill: none; stroke-dasharray: 1.85,0.8; stroke-dashoffset: 0; stroke: #b2b2b2; stroke-width: 0.5"/>
     </g>
     <g id="line2d_16">
      <defs>
       <path id="m658747fd6b" d="M 0 0 
L 3.5 0 
" style="stroke: #555555; stroke-width: 0.8"/>
      </defs>
      <g>
       <use xlink:href="#m658747fd6b" x="144" y="507.387452" style="fill: #555555; stroke: #555555; stroke-width: 0.8"/>
      </g>
     </g>
     <g id="text_9">
      <!-- −0.75 -->
      <g style="fill: #555555" transform="translate(109.854687 511.186671)scale(0.1 -0.1)">
       <defs>
        <path id="DejaVuSans-2212" d="M 678 2272 
L 4684 2272 
L 4684 1741 
L 678 1741 
L 678 2272 
z
" transform="scale(0.015625)"/>
        <path id="DejaVuSans-2e" d="M 684 794 
L 1344 794 
L 1344 0 
L 684 0 
L 684 794 
z
" transform="scale(0.015625)"/>
        <path id="DejaVuSans-37" d="M 525 4666 
L 3525 4666 
L 3525 4397 
L 1831 0 
L 1172 0 
L 2766 4134 
L 525 4134 
L 525 4666 
z
" transform="scale(0.015625)"/>
        <path id="DejaVuSans-35" d="M 691 4666 
L 3169 4666 
L 3169 4134 
L 1269 4134 
L 1269 2991 
Q 1406 3038 1543 3061 
Q 1681 3084 1819 3084 
Q 2600 3084 3056 2656 
Q 3513 2228 3513 1497 
Q 3513 744 3044 326 
Q 2575 -91 1722 -91 
Q 1428 -91 1123 -41 
Q 819 9 494 109 
L 494 744 
Q 775 591 1075 516 
Q 1375 441 1709 441 
Q 2250 441 2565 725 
Q 2881 1009 2881 1497 
Q 2881 1984 2565 2268 
Q 2250 2553 1709 2553 
Q 1456 2553 1204 2497 
Q 953 2441 691 2322 
L 691 4666 
z
" transform="scale(0.015625)"/>
       </defs>
       <use xlink:href="#DejaVuSans-2212"/>
       <use xlink:href="#DejaVuSans-30" x="83.789062"/>
       <use xlink:href="#DejaVuSans-2e" x="147.412109"/>
       <use xlink:href="#DejaVuSans-37" x="179.199219"/>
       <use xlink:href="#DejaVuSans-35" x="242.822266"/>
      </g>
     </g>
    </g>
    <g id="ytick_2">
     <g id="line2d_17">
      <path d="M 144 454.449056 
L 1036.8 454.449056 
" clip-path="url(#pf2186ac684)" style="fill: none; stroke-dasharray: 1.85,0.8; stroke-dashoffset: 0; stroke: #b2b2b2; stroke-width: 0.5"/>
     </g>
     <g id="line2d_18">
      <g>
       <use xlink:href="#m658747fd6b" x="144" y="454.449056" style="fill: #555555; stroke: #555555; stroke-width: 0.8"/>
      </g>
     </g>
     <g id="text_10">
      <!-- −0.50 -->
      <g style="fill: #555555" transform="translate(109.854687 458.248275)scale(0.1 -0.1)">
       <use xlink:href="#DejaVuSans-2212"/>
       <use xlink:href="#DejaVuSans-30" x="83.789062"/>
       <use xlink:href="#DejaVuSans-2e" x="147.412109"/>
       <use xlink:href="#DejaVuSans-35" x="179.199219"/>
       <use xlink:href="#DejaVuSans-30" x="242.822266"/>
      </g>
     </g>
    </g>
    <g id="ytick_3">
     <g id="line2d_19">
      <path d="M 144 401.51066 
L 1036.8 401.51066 
" clip-path="url(#pf2186ac684)" style="fill: none; stroke-dasharray: 1.85,0.8; stroke-dashoffset: 0; stroke: #b2b2b2; stroke-width: 0.5"/>
     </g>
     <g id="line2d_20">
      <g>
       <use xlink:href="#m658747fd6b" x="144" y="401.51066" style="fill: #555555; stroke: #555555; stroke-width: 0.8"/>
      </g>
     </g>
     <g id="text_11">
      <!-- −0.25 -->
      <g style="fill: #555555" transform="translate(109.854687 405.309879)scale(0.1 -0.1)">
       <use xlink:href="#DejaVuSans-2212"/>
       <use xlink:href="#DejaVuSans-30" x="83.789062"/>
       <use xlink:href="#DejaVuSans-2e" x="147.412109"/>
       <use xlink:href="#DejaVuSans-32" x="179.199219"/>
       <use xlink:href="#DejaVuSans-35" x="242.822266"/>
      </g>
     </g>
    </g>
    <g id="ytick_4">
     <g id="line2d_21">
      <path d="M 144 348.572264 
L 1036.8 348.572264 
" clip-path="url(#pf2186ac684)" style="fill: none; stroke-dasharray: 1.85,0.8; stroke-dashoffset: 0; stroke: #b2b2b2; stroke-width: 0.5"/>
     </g>
     <g id="line2d_22">
      <g>
       <use xlink:href="#m658747fd6b" x="144" y="348.572264" style="fill: #555555; stroke: #555555; stroke-width: 0.8"/>
      </g>
     </g>
     <g id="text_12">
      <!-- 0.00 -->
      <g style="fill: #555555" transform="translate(118.234375 352.371483)scale(0.1 -0.1)">
       <use xlink:href="#DejaVuSans-30"/>
       <use xlink:href="#DejaVuSans-2e" x="63.623047"/>
       <use xlink:href="#DejaVuSans-30" x="95.410156"/>
       <use xlink:href="#DejaVuSans-30" x="159.033203"/>
      </g>
     </g>
    </g>
    <g id="ytick_5">
     <g id="line2d_23">
      <path d="M 144 295.633868 
L 1036.8 295.633868 
" clip-path="url(#pf2186ac684)" style="fill: none; stroke-dasharray: 1.85,0.8; stroke-dashoffset: 0; stroke: #b2b2b2; stroke-width: 0.5"/>
     </g>
     <g id="line2d_24">
      <g>
       <use xlink:href="#m658747fd6b" x="144" y="295.633868" style="fill: #555555; stroke: #555555; stroke-width: 0.8"/>
      </g>
     </g>
     <g id="text_13">
      <!-- 0.25 -->
      <g style="fill: #555555" transform="translate(118.234375 299.433087)scale(0.1 -0.1)">
       <use xlink:href="#DejaVuSans-30"/>
       <use xlink:href="#DejaVuSans-2e" x="63.623047"/>
       <use xlink:href="#DejaVuSans-32" x="95.410156"/>
       <use xlink:href="#DejaVuSans-35" x="159.033203"/>
      </g>
     </g>
    </g>
    <g id="ytick_6">
     <g id="line2d_25">
      <path d="M 144 242.695472 
L 1036.8 242.695472 
" clip-path="url(#pf2186ac684)" style="fill: none; stroke-dasharray: 1.85,0.8; stroke-dashoffset: 0; stroke: #b2b2b2; stroke-width: 0.5"/>
     </g>
     <g id="line2d_26">
      <g>
       <use xlink:href="#m658747fd6b" x="144" y="242.695472" style="fill: #555555; stroke: #555555; stroke-width: 0.8"/>
      </g>
     </g>
     <g id="text_14">
      <!-- 0.50 -->
      <g style="fill: #555555" transform="translate(118.234375 246.494691)scale(0.1 -0.1)">
       <use xlink:href="#DejaVuSans-30"/>
       <use xlink:href="#DejaVuSans-2e" x="63.623047"/>
       <use xlink:href="#DejaVuSans-35" x="95.410156"/>
       <use xlink:href="#DejaVuSans-30" x="159.033203"/>
      </g>
     </g>
    </g>
    <g id="ytick_7">
     <g id="line2d_27">
      <path d="M 144 189.757076 
L 1036.8 189.757076 
" clip-path="url(#pf2186ac684)" style="fill: none; stroke-dasharray: 1.85,0.8; stroke-dashoffset: 0; stroke: #b2b2b2; stroke-width: 0.5"/>
     </g>
     <g id="line2d_28">
      <g>
       <use xlink:href="#m658747fd6b" x="144" y="189.757076" style="fill: #555555; stroke: #555555; stroke-width: 0.8"/>
      </g>
     </g>
     <g id="text_15">
      <!-- 0.75 -->
      <g style="fill: #555555" transform="translate(118.234375 193.556295)scale(0.1 -0.1)">
       <use xlink:href="#DejaVuSans-30"/>
       <use xlink:href="#DejaVuSans-2e" x="63.623047"/>
       <use xlink:href="#DejaVuSans-37" x="95.410156"/>
       <use xlink:href="#DejaVuSans-35" x="159.033203"/>
      </g>
     </g>
    </g>
    <g id="ytick_8">
     <g id="line2d_29">
      <path d="M 144 136.81868 
L 1036.8 136.81868 
" clip-path="url(#pf2186ac684)" style="fill: none; stroke-dasharray: 1.85,0.8; stroke-dashoffset: 0; stroke: #b2b2b2; stroke-width: 0.5"/>
     </g>
     <g id="line2d_30">
      <g>
       <use xlink:href="#m658747fd6b" x="144" y="136.81868" style="fill: #555555; stroke: #555555; stroke-width: 0.8"/>
      </g>
     </g>
     <g id="text_16">
      <!-- 1.00 -->
      <g style="fill: #555555" transform="translate(118.234375 140.617898)scale(0.1 -0.1)">
       <use xlink:href="#DejaVuSans-31"/>
       <use xlink:href="#DejaVuSans-2e" x="63.623047"/>
       <use xlink:href="#DejaVuSans-30" x="95.410156"/>
       <use xlink:href="#DejaVuSans-30" x="159.033203"/>
      </g>
     </g>
    </g>
    <g id="ytick_9">
     <g id="line2d_31">
      <path d="M 144 83.880284 
L 1036.8 83.880284 
" clip-path="url(#pf2186ac684)" style="fill: none; stroke-dasharray: 1.85,0.8; stroke-dashoffset: 0; stroke: #b2b2b2; stroke-width: 0.5"/>
     </g>
     <g id="line2d_32">
      <g>
       <use xlink:href="#m658747fd6b" x="144" y="83.880284" style="fill: #555555; stroke: #555555; stroke-width: 0.8"/>
      </g>
     </g>
     <g id="text_17">
      <!-- 1.25 -->
      <g style="fill: #555555" transform="translate(118.234375 87.679502)scale(0.1 -0.1)">
       <use xlink:href="#DejaVuSans-31"/>
       <use xlink:href="#DejaVuSans-2e" x="63.623047"/>
       <use xlink:href="#DejaVuSans-32" x="95.410156"/>
       <use xlink:href="#DejaVuSans-35" x="159.033203"/>
      </g>
     </g>
    </g>
    <g id="text_18">
     <!-- Temperature anomaly (°C) -->
     <g style="fill: #555555" transform="translate(103.359062 370.45875)rotate(-90)scale(0.12 -0.12)">
      <defs>
       <path id="DejaVuSans-54" d="M -19 4666 
L 3928 4666 
L 3928 4134 
L 2272 4134 
L 2272 0 
L 1638 0 
L 1638 4134 
L -19 4134 
L -19 4666 
z
" transform="scale(0.015625)"/>
       <path id="DejaVuSans-6d" d="M 3328 2828 
Q 3544 3216 3844 3400 
Q 4144 3584 4550 3584 
Q 5097 3584 5394 3201 
Q 5691 2819 5691 2113 
L 5691 0 
L 5113 0 
L 5113 2094 
Q 5113 2597 4934 2840 
Q 4756 3084 4391 3084 
Q 3944 3084 3684 2787 
Q 3425 2491 3425 1978 
L 3425 0 
L 2847 0 
L 2847 2094 
Q 2847 2600 2669 2842 
Q 2491 3084 2119 3084 
Q 1678 3084 1418 2786 
Q 1159 2488 1159 1978 
L 1159 0 
L 581 0 
L 581 3500 
L 1159 3500 
L 1159 2956 
Q 1356 3278 1631 3431 
Q 1906 3584 2284 3584 
Q 2666 3584 2933 3390 
Q 3200 3197 3328 2828 
z
" transform="scale(0.015625)"/>
       <path id="DejaVuSans-70" d="M 1159 525 
L 1159 -1331 
L 581 -1331 
L 581 3500 
L 1159 3500 
L 1159 2969 
Q 1341 3281 1617 3432 
Q 1894 3584 2278 3584 
Q 2916 3584 3314 3078 
Q 3713 2572 3713 1747 
Q 3713 922 3314 415 
Q 2916 -91 2278 -91 
Q 1894 -91 1617 61 
Q 1341 213 1159 525 
z
M 3116 1747 
Q 3116 2381 2855 2742 
Q 2594 3103 2138 3103 
Q 1681 3103 1420 2742 
Q 1159 2381 1159 1747 
Q 1159 1113 1420 752 
Q 1681 391 2138 391 
Q 2594 391 2855 752 
Q 3116 1113 3116 1747 
z
" transform="scale(0.015625)"/>
       <path id="DejaVuSans-72" d="M 2631 2963 
Q 2534 3019 2420 3045 
Q 2306 3072 2169 3072 
Q 1681 3072 1420 2755 
Q 1159 2438 1159 1844 
L 1159 0 
L 581 0 
L 581 3500 
L 1159 3500 
L 1159 2956 
Q 1341 3275 1631 3429 
Q 1922 3584 2338 3584 
Q 2397 3584 2469 3576 
Q 2541 3569 2628 3553 
L 2631 2963 
z
" transform="scale(0.015625)"/>
       <path id="DejaVuSans-75" d="M 544 1381 
L 544 3500 
L 1119 3500 
L 1119 1403 
Q 1119 906 1312 657 
Q 1506 409 1894 409 
Q 2359 409 2629 706 
Q 2900 1003 2900 1516 
L 2900 3500 
L 3475 3500 
L 3475 0 
L 2900 0 
L 2900 538 
Q 2691 219 2414 64 
Q 2138 -91 1772 -91 
Q 1169 -91 856 284 
Q 544 659 544 1381 
z
M 1991 3584 
L 1991 3584 
z
" transform="scale(0.015625)"/>
       <path id="DejaVuSans-20" transform="scale(0.015625)"/>
       <path id="DejaVuSans-6e" d="M 3513 2113 
L 3513 0 
L 2938 0 
L 2938 2094 
Q 2938 2591 2744 2837 
Q 2550 3084 2163 3084 
Q 1697 3084 1428 2787 
Q 1159 2491 1159 1978 
L 1159 0 
L 581 0 
L 581 3500 
L 1159 3500 
L 1159 2956 
Q 1366 3272 1645 3428 
Q 1925 3584 2291 3584 
Q 2894 3584 3203 3211 
Q 3513 2838 3513 2113 
z
" transform="scale(0.015625)"/>
       <path id="DejaVuSans-6f" d="M 1959 3097 
Q 1497 3097 1228 2736 
Q 959 2375 959 1747 
Q 959 1119 1226 758 
Q 1494 397 1959 397 
Q 2419 397 2687 759 
Q 2956 1122 2956 1747 
Q 2956 2369 2687 2733 
Q 2419 3097 1959 3097 
z
M 1959 3584 
Q 2709 3584 3137 3096 
Q 3566 2609 3566 1747 
Q 3566 888 3137 398 
Q 2709 -91 1959 -91 
Q 1206 -91 779 398 
Q 353 888 353 1747 
Q 353 2609 779 3096 
Q 1206 3584 1959 3584 
z
" transform="scale(0.015625)"/>
       <path id="DejaVuSans-6c" d="M 603 4863 
L 1178 4863 
L 1178 0 
L 603 0 
L 603 4863 
z
" transform="scale(0.015625)"/>
       <path id="DejaVuSans-79" d="M 2059 -325 
Q 1816 -950 1584 -1140 
Q 1353 -1331 966 -1331 
L 506 -1331 
L 506 -850 
L 844 -850 
Q 1081 -850 1212 -737 
Q 1344 -625 1503 -206 
L 1606 56 
L 191 3500 
L 800 3500 
L 1894 763 
L 2988 3500 
L 3597 3500 
L 2059 -325 
z
" transform="scale(0.015625)"/>
       <path id="DejaVuSans-28" d="M 1984 4856 
Q 1566 4138 1362 3434 
Q 1159 2731 1159 2009 
Q 1159 1288 1364 580 
Q 1569 -128 1984 -844 
L 1484 -844 
Q 1016 -109 783 600 
Q 550 1309 550 2009 
Q 550 2706 781 3412 
Q 1013 4119 1484 4856 
L 1984 4856 
z
" transform="scale(0.015625)"/>
       <path id="DejaVuSans-b0" d="M 1600 4347 
Q 1350 4347 1178 4173 
Q 1006 4000 1006 3750 
Q 1006 3503 1178 3333 
Q 1350 3163 1600 3163 
Q 1850 3163 2022 3333 
Q 2194 3503 2194 3750 
Q 2194 3997 2020 4172 
Q 1847 4347 1600 4347 
z
M 1600 4750 
Q 1800 4750 1984 4673 
Q 2169 4597 2303 4453 
Q 2447 4313 2519 4134 
Q 2591 3956 2591 3750 
Q 2591 3338 2302 3052 
Q 2013 2766 1594 2766 
Q 1172 2766 890 3047 
Q 609 3328 609 3750 
Q 609 4169 896 4459 
Q 1184 4750 1600 4750 
z
" transform="scale(0.015625)"/>
       <path id="DejaVuSans-43" d="M 4122 4306 
L 4122 3641 
Q 3803 3938 3442 4084 
Q 3081 4231 2675 4231 
Q 1875 4231 1450 3742 
Q 1025 3253 1025 2328 
Q 1025 1406 1450 917 
Q 1875 428 2675 428 
Q 3081 428 3442 575 
Q 3803 722 4122 1019 
L 4122 359 
Q 3791 134 3420 21 
Q 3050 -91 2638 -91 
Q 1578 -91 968 557 
Q 359 1206 359 2328 
Q 359 3453 968 4101 
Q 1578 4750 2638 4750 
Q 3056 4750 3426 4639 
Q 3797 4528 4122 4306 
z
" transform="scale(0.015625)"/>
       <path id="DejaVuSans-29" d="M 513 4856 
L 1013 4856 
Q 1481 4119 1714 3412 
Q 1947 2706 1947 2009 
Q 1947 1309 1714 600 
Q 1481 -109 1013 -844 
L 513 -844 
Q 928 -128 1133 580 
Q 1338 1288 1338 2009 
Q 1338 2731 1133 3434 
Q 928 4138 513 4856 
z
" transform="scale(0.015625)"/>
      </defs>
      <use xlink:href="#DejaVuSans-54"/>
      <use xlink:href="#DejaVuSans-65" x="44.083984"/>
      <use xlink:href="#DejaVuSans-6d" x="105.607422"/>
      <use xlink:href="#DejaVuSans-70" x="203.019531"/>
      <use xlink:href="#DejaVuSans-65" x="266.496094"/>
      <use xlink:href="#DejaVuSans-72" x="328.019531"/>
      <use xlink:href="#DejaVuSans-61" x="369.132812"/>
      <use xlink:href="#DejaVuSans-74" x="430.412109"/>
      <use xlink:href="#DejaVuSans-75" x="469.621094"/>
      <use xlink:href="#DejaVuSans-72" x="533"/>
      <use xlink:href="#DejaVuSans-65" x="571.863281"/>
      <use xlink:href="#DejaVuSans-20" x="633.386719"/>
      <use xlink:href="#DejaVuSans-61" x="665.173828"/>
      <use xlink:href="#DejaVuSans-6e" x="726.453125"/>
      <use xlink:href="#DejaVuSans-6f" x="789.832031"/>
      <use xlink:href="#DejaVuSans-6d" x="851.013672"/>
      <use xlink:href="#DejaVuSans-61" x="948.425781"/>
      <use xlink:href="#DejaVuSans-6c" x="1009.705078"/>
      <use xlink:href="#DejaVuSans-79" x="1037.488281"/>
      <use xlink:href="#DejaVuSans-20" x="1096.667969"/>
      <use xlink:href="#DejaVuSans-28" x="1128.455078"/>
      <use xlink:href="#DejaVuSans-b0" x="1167.46875"/>
      <use xlink:href="#DejaVuSans-43" x="1217.46875"/>
      <use xlink:href="#DejaVuSans-29" x="1287.292969"/>
     </g>
    </g>
   </g>
   <g id="PathCollection_1">
    <defs>
     <path id="m2a2adcefeb" d="M 0 -6.123724 
L -1.374862 -1.892335 
L -5.824008 -1.892335 
L -2.224573 0.722808 
L -3.599435 4.954197 
L -0 2.339054 
L 3.599435 4.954197 
L 2.224573 0.722808 
L 5.824008 -1.892335 
L 1.374862 -1.892335 
z
" style="stroke: #bfbf00; stroke-width: 0.5"/>
    </defs>
    <g clip-path="url(#pf2186ac684)">
     <use xlink:href="#m2a2adcefeb" x="1031.890876" y="89.28" style="fill: #bfbf00; stroke: #bfbf00; stroke-width: 0.5"/>
    </g>
   </g>
   <g id="line2d_33">
    <path d="M 1036.8 348.572264 
L 144.089257 348.572264 
L 144.089257 348.572264 
" clip-path="url(#pf2186ac684)" style="fill: none; stroke: #000000; stroke-width: 2; stroke-linecap: square"/>
   </g>
   <g id="line2d_34">
    <path d="M 1036.8 181.392809 
L 1036.264459 189.672374 
L 1035.711067 194.16155 
L 1035.175526 162.927897 
L 1034.622134 158.036389 
L 1034.068742 164.621925 
L 1033.533201 157.866986 
L 1032.979809 163.541982 
L 1032.444268 121.297142 
L 1031.890876 89.28 
L 1031.373187 96.140816 
L 1030.819795 124.769901 
L 1030.266403 111.005918 
L 1029.730862 144.124178 
L 1029.17747 138.660936 
L 1028.641929 152.488445 
L 1028.088537 163.372579 
L 1027.535145 177.644771 
L 1026.999604 161.487972 
L 1026.446212 166.802987 
L 1025.910671 184.653814 
L 1025.357279 158.650474 
L 1024.857441 161.318569 
L 1024.304049 176.183671 
L 1023.750657 172.647386 
L 1023.215116 202.568168 
L 1022.661724 182.324525 
L 1022.126183 181.879842 
L 1021.572791 179.465852 
L 1021.019399 200.598859 
L 1020.483858 187.152507 
L 1019.930466 180.482269 
L 1019.394925 179.042344 
L 1018.841533 185.627881 
L 1018.341695 246.930544 
L 1017.788303 201.699978 
L 1017.234911 200.747087 
L 1016.69937 172.965017 
L 1016.145978 204.855106 
L 1015.610437 203.372831 
L 1015.057045 208.709022 
L 1014.503653 207.502026 
L 1013.968112 203.775163 
L 1013.41472 197.359029 
L 1012.879179 229.778503 
L 1012.325787 218.576739 
L 1011.825949 213.96051 
L 1011.272557 224.209384 
L 1010.719165 250.000971 
L 1010.183624 198.502499 
L 1009.630232 199.878897 
L 1009.094691 194.71211 
L 1008.541299 206.824415 
L 1006.898974 195.665001 
L 1006.363434 193.25101 
L 1005.810041 238.079244 
L 1005.292352 258.894621 
L 1004.73896 259.042849 
L 1004.185568 232.425423 
L 1003.650027 245.723548 
L 1003.096635 214.129913 
L 1002.561094 221.562464 
L 1002.007702 218.132056 
L 1001.45431 215.548662 
L 1000.918769 211.673572 
L 1000.365377 227.004531 
L 999.829836 210.466576 
L 999.276444 223.320019 
L 998.776606 243.20368 
L 998.223214 248.921027 
L 997.669822 244.94006 
L 997.134281 185.903161 
L 996.580889 215.845117 
L 996.045348 227.364512 
L 995.491956 208.920775 
L 994.938564 194.267427 
L 994.403023 193.166308 
L 993.849631 188.020696 
L 993.31409 173.092069 
L 992.760698 169.216978 
L 992.26086 198.650726 
L 991.707468 201.23412 
L 991.154076 217.79325 
L 990.618535 206.358557 
L 990.065143 212.668814 
L 989.529602 198.5872 
L 988.97621 200.387106 
L 988.422818 212.224131 
L 987.887277 205.829173 
L 987.333885 224.315261 
L 986.798344 210.106595 
L 986.244952 225.882237 
L 985.745114 228.317403 
L 985.191722 222.473005 
L 984.63833 229.249119 
L 984.102789 206.633836 
L 983.549397 206.909116 
L 983.013856 235.961708 
L 982.460464 230.117309 
L 981.907072 225.839887 
L 981.371531 236.046409 
L 980.818139 242.462543 
L 980.282599 246.358809 
L 979.729206 187.110156 
L 979.211517 268.656461 
L 978.658125 290.42473 
L 978.104733 245.405918 
L 977.569192 239.05331 
L 977.0158 228.507982 
L 976.480259 226.284569 
L 975.373475 236.639319 
L 974.837934 234.775888 
L 974.284542 219.614331 
L 973.749001 193.229835 
L 973.195609 207.374974 
L 972.695771 208.62432 
L 972.142379 161.403271 
L 971.053446 212.012378 
L 970.500054 205.130386 
L 969.964513 214.384018 
L 969.411121 216.628606 
L 968.857729 216.903885 
L 968.322188 213.071145 
L 967.768796 232.128968 
L 967.233255 238.947433 
L 966.679863 222.981213 
L 966.180025 216.840359 
L 965.626633 251.864402 
L 965.073241 216.543904 
L 964.5377 194.415655 
L 963.984308 201.82703 
L 963.448767 203.161078 
L 962.895375 216.2898 
L 962.341983 209.407808 
L 961.806442 206.231505 
L 961.25305 209.386633 
L 960.717509 193.695692 
L 960.164117 202.081134 
L 959.664279 239.667396 
L 959.110887 216.798009 
L 958.557495 240.980268 
L 958.021954 187.618365 
L 957.468562 217.772075 
L 956.933021 235.686428 
L 956.379629 239.709746 
L 955.826237 246.803491 
L 955.290696 248.899852 
L 954.737304 254.511322 
L 954.201764 222.790635 
L 953.648371 201.107068 
L 953.130682 195.432072 
L 952.57729 221.964796 
L 952.023898 192.700451 
L 951.488357 226.093991 
L 950.934965 194.606233 
L 950.399424 212.795866 
L 949.846032 217.242691 
L 949.29264 234.055926 
L 948.757099 234.62766 
L 948.203707 222.49418 
L 947.668166 229.969081 
L 947.114774 227.83037 
L 946.614936 229.439697 
L 946.061544 202.314063 
L 945.508152 256.120649 
L 944.972611 223.256493 
L 944.419219 247.502278 
L 943.883678 228.69856 
L 943.330286 235.093518 
L 942.776894 216.670956 
L 942.241353 223.849403 
L 941.687961 228.804437 
L 941.15242 227.343337 
L 940.599028 181.562212 
L 940.09919 182.430402 
L 939.545798 201.149419 
L 938.992406 239.985026 
L 938.456865 202.885798 
L 937.903473 242.56842 
L 937.367932 241.636704 
L 936.81454 220.842502 
L 936.261148 230.286712 
L 935.725607 234.797063 
L 935.172215 221.58364 
L 934.636674 228.592683 
L 934.083282 215.315733 
L 933.583444 265.0143 
L 933.030052 248.624572 
L 932.47666 280.98052 
L 931.941119 294.426873 
L 931.387727 284.474454 
L 930.852186 255.739493 
L 930.298794 252.076156 
L 929.745402 265.586034 
L 929.209861 262.261503 
L 928.656469 249.95862 
L 928.120929 214.934577 
L 927.567536 230.816096 
L 927.049847 233.39949 
L 926.496455 275.157296 
L 925.943063 226.199868 
L 925.407522 270.477542 
L 924.85413 268.677637 
L 924.318589 264.379039 
L 923.765197 270.329315 
L 923.211805 263.256745 
L 922.676264 259.572233 
L 922.122872 262.049749 
L 921.587331 251.377369 
L 921.033939 270.181087 
L 920.534101 205.998576 
L 919.980709 242.547244 
L 919.427317 225.839887 
L 918.891776 261.075683 
L 918.338384 243.436609 
L 917.802843 236.95695 
L 917.249451 204.241021 
L 916.696059 192.763977 
L 916.160518 207.607903 
L 915.607126 207.142045 
L 915.071585 192.763977 
L 914.518193 213.134671 
L 914.018355 165.19366 
L 913.464963 220.630748 
L 912.911571 215.125155 
L 912.37603 224.378787 
L 911.822638 211.207714 
L 911.287097 216.226274 
L 910.733705 232.298371 
L 910.180313 240.556761 
L 909.644772 236.173461 
L 909.09138 258.894621 
L 908.555839 252.203208 
L 908.002447 250.805634 
L 907.502609 257.772327 
L 906.949217 269.249371 
L 906.395825 266.136594 
L 905.860284 288.942455 
L 905.306892 300.377148 
L 904.217959 280.684065 
L 903.664567 280.006453 
L 902.575634 265.818963 
L 902.040094 290.869412 
L 901.486701 279.921752 
L 900.969012 251.970279 
L 900.41562 292.986948 
L 899.862228 274.945543 
L 899.326687 252.224383 
L 898.773295 255.908896 
L 898.237754 266.729504 
L 897.684362 241.509652 
L 897.13097 257.6241 
L 896.595429 249.95862 
L 896.042037 273.675021 
L 894.953104 250.382127 
L 894.453266 202.568168 
L 893.346482 263.680252 
L 892.810941 252.64789 
L 892.257549 258.089957 
L 891.722008 278.693581 
L 891.168616 282.526321 
L 890.615224 281.764008 
L 890.079683 266.623627 
L 889.526291 267.70357 
L 888.99075 273.018585 
L 888.437358 273.018585 
L 887.93752 331.822556 
L 887.384128 287.121374 
L 886.830736 281.065221 
L 886.295195 329.090934 
L 885.741803 296.862039 
L 885.206262 312.743558 
L 884.65287 303.722855 
L 884.099478 299.106627 
L 883.010545 275.771382 
L 882.475004 281.764008 
L 881.921612 259.466356 
L 881.421774 264.569617 
L 880.868382 267.258888 
L 880.31499 288.582474 
L 879.779449 328.603901 
L 879.226057 324.1359 
L 878.690516 336.121153 
L 878.137124 318.820885 
L 877.583732 319.794952 
L 877.048191 288.836578 
L 876.494799 279.20179 
L 875.959259 286.401412 
L 875.405866 256.819436 
L 874.888177 253.600781 
L 874.334785 248.603397 
L 873.781393 283.690966 
L 872.69246 278.862984 
L 872.156919 266.771854 
L 871.603527 266.411873 
L 871.050135 254.087815 
L 870.514594 246.655264 
L 869.961202 261.605067 
L 869.425661 239.138012 
L 868.872269 271.112803 
L 868.372431 249.873918 
L 867.819039 253.029047 
L 867.265647 253.685483 
L 866.730106 246.99407 
L 866.176714 258.005256 
L 865.641173 281.996937 
L 865.087781 274.903192 
L 864.534389 275.453751 
L 863.998848 261.456839 
L 863.445456 258.068782 
L 862.909915 244.66478 
L 862.356523 193.399237 
L 861.856685 262.346205 
L 861.303293 272.065694 
L 860.749901 263.595551 
L 860.21436 294.765678 
L 859.660968 284.114473 
L 859.125427 284.643857 
L 858.572035 284.601506 
L 858.018643 284.707383 
L 857.483102 290.827062 
L 856.92971 289.725943 
L 856.39417 287.354303 
L 855.840777 277.42306 
L 855.340939 283.521563 
L 854.787547 302.897016 
L 854.234155 271.790414 
L 853.698614 300.059518 
L 853.145222 284.855611 
L 852.609681 280.578188 
L 852.056289 280.832292 
L 851.502897 275.919609 
L 850.967356 266.729504 
L 850.413964 267.872973 
L 849.878424 254.850128 
L 849.325031 246.337634 
L 848.807342 265.967191 
L 848.25395 232.383072 
L 847.700558 236.004059 
L 847.165017 278.566529 
L 846.611625 277.698339 
L 846.076084 257.07354 
L 845.522692 267.428291 
L 844.9693 260.016915 
L 844.433759 284.770909 
L 843.880367 277.867742 
L 843.344826 284.855611 
L 842.791434 294.765678 
L 842.291596 242.102562 
L 841.738204 282.611023 
L 841.184812 302.431158 
L 840.649271 315.792809 
L 840.095879 304.823974 
L 839.560338 312.235349 
L 838.453554 312.87061 
L 837.918013 294.913906 
L 837.364621 295.48564 
L 836.82908 293.241052 
L 836.275688 285.766151 
L 835.77585 289.535365 
L 835.222458 279.773524 
L 834.669066 306.687405 
L 834.133525 323.564166 
L 833.580133 320.980772 
L 833.044592 327.185152 
L 832.4912 321.319578 
L 831.937808 332.07666 
L 831.402267 321.256052 
L 830.848875 307.089737 
L 830.313335 317.063331 
L 829.759942 308.868467 
L 829.260104 344.845401 
L 828.706712 310.8166 
L 828.15332 368.180646 
L 827.617779 340.843258 
L 827.064387 323.437114 
L 825.975454 312.849434 
L 825.422062 323.310061 
L 824.886522 320.917246 
L 824.333129 288.561298 
L 823.797589 316.7457 
L 823.244197 290.975289 
L 822.726507 311.451861 
L 822.173115 288.624824 
L 821.619723 290.382379 
L 821.084182 257.242943 
L 820.53079 303.828732 
L 819.995249 281.340501 
L 819.441857 280.218207 
L 818.888465 292.182285 
L 818.352924 292.902247 
L 817.799532 287.566056 
L 817.263991 286.782568 
L 816.710599 258.449939 
L 816.210761 246.210581 
L 815.657369 239.116836 
L 815.103977 256.353578 
L 814.568436 316.597473 
L 814.015044 311.070704 
L 813.479503 299.233679 
L 812.926111 318.79971 
L 812.372719 318.164449 
L 811.837178 322.505398 
L 811.283786 307.85205 
L 810.748245 305.078078 
L 810.194853 330.93319 
L 809.695015 314.839918 
L 809.141623 320.154933 
L 808.588231 259.635759 
L 808.05269 303.70168 
L 807.499298 312.849434 
L 806.963757 309.186097 
L 806.410365 297.158494 
L 805.856973 300.546551 
L 805.321432 288.158966 
L 804.76804 293.092825 
L 804.2325 272.785656 
L 803.679107 262.113276 
L 803.179269 271.726888 
L 802.625877 249.979795 
L 802.072485 291.949356 
L 801.536944 278.291249 
L 800.983552 310.011936 
L 800.448012 306.052144 
L 799.894619 307.132088 
L 799.341227 302.579386 
L 798.805687 296.184427 
L 798.252294 281.658131 
L 797.716754 283.309809 
L 797.163362 297.984333 
L 796.645672 274.331457 
L 796.09228 283.35216 
L 795.538888 242.01786 
L 795.003347 286.041431 
L 794.449955 286.210833 
L 793.914414 295.231536 
L 793.361022 300.652428 
L 792.80763 311.600088 
L 792.272089 302.346457 
L 791.718697 315.348127 
L 791.183156 325.025265 
L 790.629764 297.116143 
L 790.129926 329.048584 
L 789.576534 314.64934 
L 789.023142 316.555122 
L 788.487601 301.033584 
L 787.934209 334.892983 
L 787.398668 332.733096 
L 786.845276 347.873477 
L 786.291884 333.770689 
L 785.756343 337.306973 
L 785.202951 335.95175 
L 784.66741 320.536089 
L 784.114018 301.393565 
L 783.61418 320.917246 
L 783.060788 314.564638 
L 782.507396 324.771161 
L 781.971855 293.452806 
L 781.418463 323.394763 
L 780.882922 309.03787 
L 780.32953 318.545606 
L 779.776138 311.790666 
L 779.240597 296.184427 
L 778.687205 298.429015 
L 778.151665 288.857753 
L 777.598272 282.738075 
L 777.098434 298.09021 
L 776.545042 335.04121 
L 775.99165 329.387389 
L 774.902717 387.132592 
L 774.367177 357.592967 
L 773.813784 367.503035 
L 773.260392 366.486617 
L 772.724852 364.242029 
L 772.171459 374.575604 
L 771.635919 353.294369 
L 771.082527 399.266072 
L 770.011445 352.405004 
L 768.922512 379.276534 
L 768.36912 374.745007 
L 767.833579 344.972453 
L 767.280187 362.78093 
L 766.726795 347.407619 
L 765.637862 333.897741 
L 765.102321 332.07666 
L 764.548929 325.364071 
L 764.049091 341.669097 
L 763.495699 323.140659 
L 762.942307 369.239414 
L 762.406766 362.78093 
L 761.853374 366.168987 
L 761.317833 357.635317 
L 760.764441 345.798292 
L 760.211049 344.443069 
L 759.675508 356.513023 
L 759.122116 353.781402 
L 758.586575 357.465915 
L 758.033183 359.350522 
L 757.533345 402.527077 
L 756.979953 389.927739 
L 756.426561 342.70669 
L 755.89102 343.913685 
L 755.337628 339.128054 
L 754.802087 336.650537 
L 754.248695 332.182537 
L 753.695303 323.945322 
L 753.159762 306.814457 
L 752.60637 303.002893 
L 752.07083 295.591517 
L 751.517437 278.587704 
L 751.017599 269.75758 
L 750.464207 293.728086 
L 749.910815 295.019783 
L 749.375274 331.653153 
L 748.821882 329.70502 
L 748.286342 344.188965 
L 747.732949 330.29793 
L 747.179557 335.04121 
L 746.644017 332.373115 
L 746.090624 345.459486 
L 745.555084 341.012661 
L 745.001692 348.275809 
L 744.484002 382.961046 
L 743.93061 399.710755 
L 743.377218 352.764985 
L 742.841677 340.885609 
L 742.288285 364.729063 
L 741.752744 357.952948 
L 741.199352 363.140911 
L 740.64596 361.91274 
L 740.110419 374.893235 
L 739.557027 367.608911 
L 739.021486 376.079055 
L 738.468094 378.47187 
L 737.968256 393.972233 
L 737.414864 349.525155 
L 736.861472 368.773556 
L 736.325931 343.786633 
L 735.772539 356.343621 
L 735.236998 346.941761 
L 734.683606 352.764985 
L 734.130214 353.188492 
L 733.594673 342.325533 
L 733.041281 339.805666 
L 732.505741 320.832545 
L 731.952348 341.859675 
L 731.45251 298.746646 
L 730.899118 322.865379 
L 730.345726 296.311479 
L 729.810185 308.423784 
L 729.256793 333.474233 
L 728.16786 328.370972 
L 727.614468 328.815655 
L 727.078927 332.351939 
L 726.525535 311.388335 
L 725.989995 307.597945 
L 725.436602 322.695976 
L 724.936764 370.552286 
L 724.383372 375.994353 
L 723.82998 357.698844 
L 723.294439 345.268908 
L 722.741047 338.59867 
L 722.205507 350.943904 
L 721.652114 351.60034 
L 721.098722 352.74381 
L 720.563182 351.981497 
L 720.009789 365.576077 
L 719.474249 363.458541 
L 718.920857 316.639824 
L 718.403167 375.380268 
L 717.849775 388.064308 
L 717.296383 357.042407 
L 716.760842 353.06144 
L 716.20745 321.298402 
L 715.671909 355.284853 
L 715.118517 349.736909 
L 714.029584 354.903696 
L 713.476192 322.251294 
L 712.940651 347.386444 
L 712.387259 347.958179 
L 711.887421 383.638658 
L 711.334029 371.187547 
L 710.780637 374.91441 
L 710.245096 358.418806 
L 709.691704 361.108076 
L 709.156163 343.045496 
L 708.602771 344.527771 
L 708.049379 334.4483 
L 707.513838 336.354082 
L 706.960446 356.174218 
L 706.424906 367.79949 
L 705.871513 349.101648 
L 705.371675 356.470673 
L 704.818283 358.270578 
L 704.264891 351.198009 
L 703.72935 367.630087 
L 703.175958 343.532529 
L 702.640417 359.223469 
L 702.087025 358.39763 
L 701.533633 366.380741 
L 700.998092 357.76237 
L 700.4447 365.237271 
L 699.90916 388.276061 
L 699.355768 369.853499 
L 698.855929 390.203019 
L 698.302537 363.37384 
L 697.749145 404.708139 
L 697.213604 391.282962 
L 696.660212 405.004594 
L 696.124672 392.892289 
L 695.571279 383.913937 
L 695.017887 372.098087 
L 694.482347 368.286523 
L 693.928954 369.324115 
L 693.393414 387.683151 
L 692.322332 370.76404 
L 691.76894 338.238689 
L 691.215548 331.377873 
L 690.680007 307.343841 
L 690.126615 303.087594 
L 689.591074 314.077605 
L 689.037682 315.136373 
L 688.48429 319.307919 
L 687.948749 338.00576 
L 687.395357 345.819467 
L 686.306424 353.146141 
L 685.806586 294.236294 
L 685.253194 340.610329 
L 684.699802 329.916773 
L 684.164261 332.796622 
L 683.610869 331.716679 
L 683.075328 335.739997 
L 682.521936 336.883466 
L 681.968544 329.408565 
L 681.433003 336.417608 
L 680.879611 336.099978 
L 680.344071 332.415466 
L 679.790678 323.22536 
L 679.29084 312.616505 
L 678.737448 320.091407 
L 678.184056 352.19325 
L 677.648515 345.184207 
L 677.095123 355.98364 
L 676.00619 341.796149 
L 675.452798 341.160889 
L 674.917258 317.253909 
L 674.363865 314.395236 
L 673.828325 320.303161 
L 673.274933 313.717624 
L 672.775094 311.13423 
L 672.221702 323.415938 
L 671.66831 300.334798 
L 671.132769 358.821138 
L 670.579377 340.313874 
L 670.043837 335.062385 
L 669.490444 338.810424 
L 668.937052 341.393818 
L 668.401512 332.224887 
L 667.848119 366.380741 
L 667.312579 368.773556 
L 666.759187 391.791171 
L 666.241497 309.228448 
L 665.688105 347.894653 
L 665.134713 355.835412 
L 664.599172 365.300797 
L 664.04578 351.473288 
L 663.510239 328.032166 
L 662.956847 337.645779 
L 661.867914 330.594385 
L 661.314522 343.003145 
L 660.225589 305.353357 
L 659.725751 334.13067 
L 659.172359 322.103066 
L 658.618967 317.825644 
L 657.530034 339.996244 
L 656.994493 344.633647 
L 656.441101 337.391675 
L 655.887709 334.829456 
L 655.352168 335.35884 
L 654.798776 327.248678 
L 654.263236 324.432355 
L 653.709843 323.564166 
L 652.656613 285.808502 
L 652.103221 300.080693 
L 651.014288 345.544188 
L 649.925355 321.001947 
L 649.371963 335.95175 
L 648.836423 315.178724 
L 648.28303 325.448773 
L 647.74749 352.659108 
L 646.694259 372.246315 
L 646.140867 373.516836 
L 645.587475 380.970562 
L 645.051934 381.690525 
L 644.498542 390.690052 
L 643.963002 401.934167 
L 643.40961 388.085483 
L 642.856217 377.074297 
L 642.320677 379.001254 
L 641.767285 396.746205 
L 641.231744 408.837334 
L 640.678352 390.986507 
L 640.160662 406.423343 
L 639.60727 386.116175 
L 639.053878 405.872784 
L 638.518337 398.82139 
L 637.964945 374.660306 
L 637.429404 368.11712 
L 636.876012 354.120208 
L 636.32262 367.227755 
L 635.787079 363.289138 
L 635.233687 375.549671 
L 634.698146 399.033143 
L 634.144754 414.025297 
L 633.091524 329.959124 
L 632.538132 387.937255 
L 632.002591 340.313874 
L 631.449199 363.267963 
L 630.913658 361.171602 
L 629.806874 374.59678 
L 629.271333 373.156855 
L 628.717941 391.346488 
L 628.182401 385.967947 
L 627.629008 367.84184 
L 627.12917 366.888949 
L 626.575778 398.376707 
L 626.022386 336.81994 
L 625.486845 361.722162 
L 624.933453 333.26248 
L 624.397913 335.189438 
L 623.84452 331.377873 
L 623.291128 334.554177 
L 622.755588 322.31482 
L 622.202195 318.079748 
L 621.666655 308.910818 
L 621.113263 315.983387 
L 620.613425 316.089264 
L 620.060032 326.613417 
L 619.50664 350.266293 
L 618.9711 390.393597 
L 618.417707 356.322445 
L 617.882167 334.744755 
L 617.328775 334.871807 
L 616.775382 333.008376 
L 616.239842 340.186822 
L 615.68645 341.372642 
L 615.150909 334.469475 
L 614.597517 358.736436 
L 614.079827 329.069759 
L 612.973043 303.087594 
L 612.437502 343.066671 
L 611.88411 325.681702 
L 611.348569 320.57844 
L 610.795177 324.644109 
L 610.241785 325.258194 
L 609.706244 340.504452 
L 609.152852 336.523485 
L 608.617311 367.143053 
L 608.063919 384.337444 
L 607.564081 435.412409 
L 606.457297 386.899663 
L 605.921756 424.909431 
L 605.368364 383.744534 
L 604.832823 370.785215 
L 604.279431 377.836609 
L 603.726039 370.869916 
L 603.190498 360.409289 
L 602.637106 359.922256 
L 602.101566 384.697426 
L 601.548173 366.952475 
L 601.048335 399.160195 
L 600.494943 407.376234 
L 599.941551 387.132592 
L 599.40601 359.879905 
L 598.852618 354.861346 
L 598.317078 363.41619 
L 597.763685 353.167317 
L 597.210293 364.87729 
L 596.674753 380.038847 
L 596.12136 349.906312 
L 595.58582 346.962937 
L 594.53259 379.827093 
L 593.979197 322.971256 
L 593.425805 372.309841 
L 592.890265 360.430465 
L 592.336872 362.336247 
L 591.801332 370.425234 
L 591.24794 354.543715 
L 590.694547 361.743337 
L 590.159007 351.748568 
L 589.605615 318.355028 
L 589.070074 362.251546 
L 588.516682 387.556099 
L 587.998992 367.757139 
L 587.4456 337.243447 
L 586.892208 379.551813 
L 586.356667 353.611999 
L 585.803275 336.946992 
L 585.267734 376.227282 
L 584.714342 361.764512 
L 584.16095 351.494464 
L 583.625409 344.16779 
L 583.072017 352.595582 
L 582.536477 345.544188 
L 581.983084 350.245117 
L 581.483246 364.961991 
L 580.929854 387.026715 
L 580.376462 404.390509 
L 579.840921 351.092132 
L 579.287529 349.779259 
L 578.751988 352.045023 
L 578.198596 363.331489 
L 577.645204 356.343621 
L 577.109663 370.086428 
L 576.556271 354.882521 
L 576.020731 311.13423 
L 575.467338 348.466387 
L 574.9675 329.768546 
L 574.414108 301.795897 
L 573.860716 358.630559 
L 573.325175 307.174438 
L 572.771783 294.172768 
L 572.236243 293.98219 
L 571.68285 273.484443 
L 571.129458 313.590572 
L 570.593918 318.651483 
L 570.040525 311.282458 
L 569.504985 290.043573 
L 568.951593 325.87228 
L 568.451755 345.417136 
L 567.898362 316.068089 
L 567.34497 328.434498 
L 566.80943 316.42807 
L 566.256037 280.175856 
L 565.720497 266.941257 
L 565.167105 289.196559 
L 564.613712 281.975762 
L 564.078172 277.677164 
L 563.52478 293.135176 
L 562.989239 291.01764 
L 562.435847 270.731646 
L 561.918157 284.368577 
L 561.364765 258.767569 
L 560.811373 273.632671 
L 560.275832 296.502058 
L 559.72244 283.03453 
L 559.186899 318.397378 
L 558.633507 327.566308 
L 558.080115 309.821358 
L 557.544574 343.384301 
L 556.991182 320.493739 
L 556.455642 312.023595 
L 555.902249 332.436641 
L 555.402411 312.934136 
L 554.849019 353.675525 
L 554.295627 316.491596 
L 553.760086 313.209415 
L 553.206694 316.915103 
L 552.671154 323.606516 
L 552.117761 339.255106 
L 551.564369 332.309589 
L 551.028829 304.146362 
L 550.475436 313.315292 
L 549.939896 308.339083 
L 549.386504 311.070704 
L 548.886665 328.010991 
L 548.333273 285.40617 
L 547.779881 303.934608 
L 547.24434 301.732371 
L 546.690948 282.293392 
L 546.155408 329.916773 
L 545.602015 311.811842 
L 545.048623 304.760447 
L 544.513083 314.395236 
L 543.95969 296.777337 
L 543.42415 301.37239 
L 542.870758 326.909872 
L 542.37092 300.5042 
L 541.817527 310.414268 
L 541.264135 291.758777 
L 540.728595 327.312204 
L 540.175202 327.545133 
L 539.639662 317.169207 
L 539.08627 329.472091 
L 538.532877 317.677416 
L 537.443945 336.798765 
L 536.908404 321.340753 
L 536.355012 334.363599 
L 535.837322 337.68813 
L 535.28393 374.533254 
L 534.730538 262.663835 
L 534.194997 339.255106 
L 533.641605 357.614142 
L 533.106064 346.221799 
L 532.552672 336.81994 
L 531.99928 347.280567 
L 531.463739 350.202767 
L 530.910347 356.322445 
L 530.374807 376.502562 
L 529.821414 388.741919 
L 529.321576 372.648647 
L 528.768184 383.829236 
L 528.214792 402.37885 
L 527.679251 347.746425 
L 527.125859 333.241305 
L 526.036926 351.727392 
L 525.483534 359.26582 
L 524.947994 368.455926 
L 523.859061 339.509211 
L 523.305669 342.050254 
L 522.80583 360.006958 
L 522.252438 356.57655 
L 521.699046 368.032418 
L 520.610113 324.495882 
L 520.074573 320.705492 
L 519.52118 328.879181 
L 518.967788 348.656965 
L 518.432248 345.904169 
L 517.878855 352.532056 
L 517.343315 375.295566 
L 516.789923 387.174942 
L 516.290085 340.419751 
L 515.736692 384.231568 
L 515.1833 352.659108 
L 514.64776 354.395488 
L 514.094367 353.315544 
L 513.005435 360.366939 
L 512.452042 351.515639 
L 511.916502 371.335774 
L 511.36311 373.516836 
L 510.827569 386.45498 
L 510.274177 393.188744 
L 509.756487 414.999363 
L 509.203095 402.505902 
L 508.649703 386.031473 
L 508.114162 405.893959 
L 507.56077 351.325061 
L 507.025229 367.968892 
L 506.471837 369.811149 
L 505.918445 373.029803 
L 505.382904 384.697426 
L 504.829512 391.727645 
L 504.293972 402.929409 
L 503.740579 379.805918 
L 503.240741 313.442344 
L 502.687349 409.853751 
L 502.133957 353.993156 
L 501.598416 345.861818 
L 501.045024 363.246787 
L 500.509484 374.533254 
L 499.956091 360.17636 
L 499.402699 367.503035 
L 498.867159 349.101648 
L 498.313766 357.974123 
L 497.778226 397.656745 
L 497.224834 403.077637 
L 496.724996 353.463772 
L 496.171603 414.258226 
L 495.618211 434.734798 
L 495.082671 402.527077 
L 494.529278 388.360763 
L 493.993738 395.454508 
L 493.440346 388.572516 
L 492.886953 386.899663 
L 492.351413 391.071208 
L 491.798021 392.849939 
L 491.26248 391.854697 
L 490.709088 401.002452 
L 490.20925 415.634624 
L 489.655857 413.644141 
L 489.102465 387.979606 
L 488.566925 389.758336 
L 488.013532 368.180646 
L 487.477992 363.289138 
L 486.9246 385.777369 
L 486.371207 374.152097 
L 485.835667 381.98698 
L 485.282275 384.019814 
L 484.746734 355.43308 
L 484.193342 386.666734 
L 483.675652 386.560857 
L 483.12226 315.813985 
L 482.568868 370.848741 
L 482.033327 372.690997 
L 481.479935 346.624131 
L 480.944394 347.831127 
L 480.391002 347.577022 
L 479.83761 351.854445 
L 479.302069 352.489705 
L 478.748677 380.314126 
L 478.213137 382.982222 
L 477.659744 349.863961 
L 477.159906 395.687437 
L 476.606514 358.524683 
L 476.053122 347.217041 
L 475.517581 319.604374 
L 474.964189 348.805193 
L 474.428649 370.658163 
L 473.875256 367.630087 
L 473.321864 363.225612 
L 472.786324 372.606296 
L 472.232931 390.414772 
L 471.697391 389.864213 
L 471.143999 360.197536 
L 470.644161 390.922981 
L 470.090768 416.460463 
L 469.537376 457.985341 
L 469.001836 369.133537 
L 468.448443 373.665064 
L 467.912903 392.807588 
L 467.359511 392.574659 
L 466.806118 406.486869 
L 466.270578 406.719798 
L 465.717186 409.684349 
L 465.181645 411.590131 
L 464.628253 404.771665 
L 464.128415 464.930859 
L 463.575022 451.060999 
L 463.02163 384.845653 
L 462.48609 362.950332 
L 461.397157 388.890147 
L 460.843765 390.859455 
L 460.290373 386.116175 
L 459.754832 407.376234 
L 459.20144 388.085483 
L 458.665899 400.32484 
L 458.112507 404.263457 
L 457.594817 379.276534 
L 457.041425 365.512551 
L 456.488033 414.893487 
L 455.952492 356.978881 
L 455.3991 345.607714 
L 454.863559 354.395488 
L 454.310167 372.818049 
L 453.756775 370.48876 
L 453.221234 391.219436 
L 452.667842 396.979133 
L 452.132302 395.30628 
L 451.578909 402.844708 
L 451.079071 389.165426 
L 450.525679 385.057407 
L 449.972287 394.268688 
L 449.436746 365.173745 
L 448.883354 366.359565 
L 448.347814 370.404059 
L 447.794421 367.24893 
L 447.241029 382.071681 
L 446.705489 374.490903 
L 446.152096 377.053121 
L 445.616556 377.984837 
L 445.063164 332.563693 
L 444.563326 331.399048 
L 444.009933 313.421169 
L 443.456541 319.816127 
L 442.921001 336.205855 
L 442.367608 376.650789 
L 441.832068 370.594637 
L 441.278676 377.667207 
L 440.725283 392.892289 
L 440.189743 397.08501 
L 439.636351 395.856839 
L 439.10081 383.151624 
L 438.547418 384.400971 
L 438.04758 407.503287 
L 437.494188 417.307478 
L 436.940795 431.410266 
L 436.405255 410.870169 
L 435.851863 409.536121 
L 435.316322 408.625581 
L 434.76293 409.874927 
L 434.209538 395.496858 
L 433.673997 396.407399 
L 433.120605 388.868971 
L 432.585064 400.790698 
L 432.031672 372.500419 
L 430.96059 402.272973 
L 430.407198 348.551089 
L 429.871657 342.537287 
L 429.318265 382.855169 
L 428.782724 400.536594 
L 428.229332 408.371476 
L 427.67594 408.286775 
L 427.140399 389.821862 
L 426.587007 401.256556 
L 426.051467 420.166151 
L 425.498075 405.682206 
L 424.998236 428.720996 
L 424.444844 393.951057 
L 423.891452 381.669349 
L 423.355911 389.41953 
L 422.802519 401.637712 
L 422.266979 402.040044 
L 421.713586 407.71504 
L 421.160194 403.945826 
L 420.624654 408.286775 
L 420.071261 404.623438 
L 419.535721 376.121405 
L 418.982329 365.237271 
L 418.482491 410.933695 
L 417.929098 416.778094 
L 417.375706 365.978409 
L 416.840166 387.937255 
L 416.286773 362.590351 
L 415.751233 379.93297 
L 415.197841 390.160668 
L 414.644448 372.352192 
L 414.108908 383.829236 
L 413.555516 389.165426 
L 412.466583 394.649844 
L 411.413353 361.235128 
L 410.85996 430.859707 
L 410.32442 401.722414 
L 409.235487 385.735018 
L 408.682095 397.402641 
L 407.593162 402.760006 
L 407.03977 384.189217 
L 406.504229 392.998166 
L 405.950837 360.917498 
L 405.433147 395.094527 
L 404.879755 373.072154 
L 404.326363 411.674832 
L 403.790822 415.867553 
L 403.23743 395.158053 
L 402.70189 387.386696 
L 402.148497 392.553484 
L 401.595105 394.205161 
L 401.059565 398.292006 
L 400.506172 387.471398 
L 399.970632 363.479716 
L 399.41724 399.244897 
L 398.917401 359.795204 
L 398.364009 399.901333 
L 397.810617 416.227534 
L 397.275076 373.008628 
L 396.721684 369.705272 
L 396.186144 379.93297 
L 395.079359 391.43119 
L 394.543819 387.301995 
L 393.990426 407.016253 
L 393.454886 411.378377 
L 392.901494 386.327928 
L 392.401656 409.811401 
L 391.848263 394.014583 
L 391.294871 461.415749 
L 390.759331 377.116647 
L 390.205938 403.670547 
L 389.670398 362.018617 
L 389.117006 385.120933 
L 388.563613 385.015056 
L 388.028073 421.246094 
L 387.474681 443.861377 
L 386.93914 415.189942 
L 386.385748 439.351026 
L 385.88591 448.541131 
L 385.332518 439.60513 
L 384.779125 470.161172 
L 384.243585 432.363157 
L 383.690193 404.708139 
L 383.154652 403.967002 
L 382.047868 409.747875 
L 381.512327 429.758588 
L 380.958935 396.110944 
L 380.423394 390.457123 
L 379.870002 410.912519 
L 379.352312 385.81972 
L 378.79892 386.624383 
L 378.245528 359.223469 
L 377.709987 351.028606 
L 377.156595 385.036231 
L 376.621055 372.098087 
L 376.067662 364.665536 
L 375.51427 354.586066 
L 374.97873 366.740722 
L 374.425337 363.077385 
L 373.889797 344.019562 
L 373.336405 369.980551 
L 372.836566 350.859203 
L 372.283174 377.667207 
L 371.729782 369.705272 
L 371.194241 374.025045 
L 370.640849 368.43475 
L 370.105309 386.285577 
L 369.551917 385.777369 
L 368.998524 392.93464 
L 368.462984 390.139493 
L 367.909592 383.448079 
L 367.374051 401.108328 
L 366.820659 383.151624 
L 366.320821 374.04622 
L 365.767428 328.222745 
L 365.214036 356.491848 
L 364.678496 377.60368 
L 364.125103 414.46998 
L 363.589563 423.998891 
L 363.036171 418.02744 
L 361.947238 428.593944 
L 361.393846 432.003176 
L 360.858305 422.813071 
L 360.304913 434.9042 
L 359.805075 431.134987 
L 359.251683 422.961298 
L 358.69829 423.808313 
L 358.16275 435.857092 
L 357.609358 458.366498 
L 357.073817 455.634876 
L 356.520425 444.200183 
L 355.967033 415.06289 
L 355.431492 403.628196 
L 354.8781 396.365048 
L 354.342559 391.494716 
L 353.789167 414.702908 
L 353.271477 371.67458 
L 352.718085 407.672689 
L 352.164693 400.578944 
L 351.629152 403.014111 
L 351.07576 421.26727 
L 349.986827 444.729567 
L 349.433435 447.207084 
L 348.897895 442.654382 
L 347.808962 456.545417 
L 347.25557 469.208281 
L 346.755732 460.060526 
L 346.202339 455.867805 
L 345.648947 467.704831 
L 344.560014 437.487594 
L 344.024474 418.916805 
L 343.471082 418.980331 
L 342.917689 417.688634 
L 342.382149 423.215403 
L 341.828757 412.077164 
L 341.293216 420.356729 
L 340.739824 437.55112 
L 339.686593 412.839477 
L 339.133201 434.777148 
L 338.597661 406.444519 
L 338.044268 431.8973 
L 337.508728 425.036483 
L 336.955336 413.199458 
L 336.401943 440.685073 
L 335.866403 436.344125 
L 335.313011 444.115481 
L 334.77747 460.039351 
L 334.224078 462.898024 
L 333.72424 445.195425 
L 333.170848 465.01556 
L 332.617455 430.012693 
L 332.081915 450.912771 
L 331.528523 458.027692 
L 330.992982 432.701963 
L 330.43959 449.938705 
L 329.886198 430.605603 
L 329.350657 434.58657 
L 328.797265 432.892541 
L 328.261724 450.891596 
L 327.708332 476.492604 
L 327.190642 428.043384 
L 326.63725 424.803554 
L 326.083858 431.62202 
L 325.548317 455.613701 
L 324.994925 413.093581 
L 324.459385 419.80617 
L 323.905992 420.102625 
L 322.81706 427.810455 
L 322.263667 447.440013 
L 321.728127 422.855421 
L 321.174735 407.016253 
L 320.674897 434.078361 
L 320.121504 421.479023 
L 319.568112 383.511605 
L 319.032572 426.412882 
L 318.479179 408.053846 
L 317.943639 413.220633 
L 317.390247 398.588461 
L 316.836854 400.811873 
L 316.301314 386.010298 
L 315.747922 394.43809 
L 315.212381 359.456398 
L 314.159151 398.948442 
L 313.605759 385.735018 
L 312.516826 367.968892 
L 311.963434 411.251325 
L 311.427893 395.983892 
L 310.874501 396.746205 
L 310.321109 389.186602 
L 309.785568 401.574186 
L 309.232176 409.536121 
L 308.696635 443.459045 
L 308.143243 432.003176 
L 307.643405 479.584207 
L 307.090013 423.533033 
L 306.53662 399.689579 
L 306.00108 384.273918 
L 305.447688 434.671271 
L 304.912147 446.656524 
L 304.358755 439.92276 
L 303.805363 445.915387 
L 303.269822 441.807367 
L 302.71643 439.245149 
L 301.627497 457.180677 
L 301.109807 447.461188 
L 300.556415 463.258005 
L 300.003023 430.330323 
L 299.467482 432.21493 
L 298.91409 440.833301 
L 298.37855 428.10691 
L 297.825157 439.541604 
L 297.271765 419.297961 
L 296.736225 428.170436 
L 296.182832 431.410266 
L 295.647292 423.533033 
L 295.0939 406.910377 
L 294.594062 365.512551 
L 293.487277 424.634152 
L 292.951737 421.203744 
L 291.862804 397.593219 
L 291.309412 404.538736 
L 290.756019 410.023154 
L 290.220479 418.959156 
L 289.667087 403.967002 
L 289.131546 405.682206 
L 288.578154 389.948914 
L 288.078316 357.232986 
L 287.524924 366.698371 
L 286.971531 398.800214 
L 286.435991 378.74715 
L 285.882599 407.566813 
L 284.793666 376.079055 
L 284.240274 381.669349 
L 283.704733 375.528495 
L 283.151341 374.999111 
L 282.6158 362.251546 
L 282.062408 355.496606 
L 281.009178 375.23204 
L 280.455785 341.796149 
L 279.920245 377.053121 
L 279.366853 338.746898 
L 278.831312 361.277479 
L 278.27792 363.564418 
L 277.724528 363.987925 
L 277.188987 358.101175 
L 276.635595 356.428322 
L 276.100054 369.429992 
L 275.546662 357.084758 
L 275.046824 368.350049 
L 274.493432 399.477826 
L 273.94004 383.638658 
L 273.404499 316.322193 
L 272.851107 353.675525 
L 272.315566 355.073099 
L 271.762174 362.632702 
L 271.208782 375.23204 
L 270.673241 390.435948 
L 270.119849 374.04622 
L 269.584308 389.779512 
L 269.030916 402.548253 
L 268.531078 407.587988 
L 267.977686 369.853499 
L 267.424294 350.118065 
L 266.888753 399.753105 
L 266.335361 417.053373 
L 265.79982 390.245369 
L 265.246428 397.402641 
L 264.693036 399.943684 
L 264.157495 392.574659 
L 263.604103 409.705524 
L 263.068562 421.987232 
L 262.51517 486.529724 
L 262.015332 407.545637 
L 261.46194 357.021232 
L 260.908548 411.86541 
L 260.373007 404.030528 
L 259.819615 382.62224 
L 259.284074 353.802578 
L 258.730682 364.136153 
L 258.17729 357.063583 
L 257.641749 369.747622 
L 257.088357 353.993156 
L 256.552816 349.249876 
L 255.999424 388.021957 
L 255.499586 371.568703 
L 254.946194 387.894905 
L 254.392802 338.196338 
L 253.857261 383.702184 
L 253.303869 349.758084 
L 252.768328 362.950332 
L 252.214936 363.882048 
L 251.661544 359.350522 
L 251.126003 368.159471 
L 250.572611 370.636988 
L 250.03707 404.898718 
L 249.483678 392.595834 
L 248.965989 365.279622 
L 248.412597 370.933443 
L 247.859205 363.183261 
L 247.323664 382.495188 
L 246.770272 376.460211 
L 246.234731 376.714315 
L 245.681339 396.068593 
L 245.127947 391.134735 
L 244.592406 410.785467 
L 244.039014 392.532308 
L 243.503473 388.127834 
L 242.950081 409.536121 
L 242.450243 436.153547 
L 241.896851 441.510912 
L 241.343459 399.647229 
L 240.807918 411.653657 
L 240.254526 393.781654 
L 239.718985 402.167096 
L 239.165593 406.486869 
L 238.612201 406.550395 
L 238.07666 422.410739 
L 237.523268 412.479496 
L 236.987727 412.585373 
L 236.434335 392.278204 
L 235.934497 395.475683 
L 235.381105 440.896827 
L 234.827713 400.494243 
L 234.292172 383.659833 
L 233.203239 403.352916 
L 232.649847 418.048615 
L 232.096455 391.304137 
L 231.560914 399.499001 
L 231.007522 421.013165 
L 230.471981 422.686019 
L 229.918589 395.539209 
L 229.418751 477.890178 
L 228.865359 492.48 
L 228.311967 448.265852 
L 227.776426 448.689359 
L 227.223034 400.748347 
L 226.687493 395.115702 
L 226.134101 418.006264 
L 225.580709 422.622493 
L 225.045168 408.519704 
L 224.491776 413.813543 
L 223.956235 416.396937 
L 223.402843 412.775951 
L 222.885154 377.222524 
L 222.331762 398.800214 
L 221.77837 357.48709 
L 221.242829 432.596086 
L 220.689437 409.154965 
L 220.153896 380.631757 
L 219.600504 397.550868 
L 219.047112 396.513276 
L 218.511571 391.410014 
L 217.958179 377.667207 
L 217.422638 401.997693 
L 216.869246 393.464024 
L 216.369408 459.277038 
L 215.262624 397.317939 
L 214.727083 420.970815 
L 214.173691 410.848993 
L 213.63815 422.855421 
L 213.084758 417.540406 
L 212.531366 407.905618 
L 211.995825 409.45142 
L 211.442433 430.986759 
L 210.906892 403.374092 
L 210.3535 416.100482 
L 209.853662 438.948694 
L 209.30027 424.676502 
L 208.746878 385.629141 
L 208.211337 407.206832 
L 207.657945 389.080725 
L 207.122404 396.513276 
L 206.569012 377.582505 
L 206.01562 382.537539 
L 205.480079 363.352664 
L 204.926687 355.475431 
L 203.837754 323.013606 
L 202.784524 368.561802 
L 202.231132 339.14923 
L 201.695591 357.423564 
L 201.142199 344.548946 
L 200.053266 383.151624 
L 199.499874 372.902751 
L 198.964333 368.540627 
L 198.410941 381.626999 
L 197.8754 385.86207 
L 197.322008 411.54778 
L 196.804319 418.196843 
L 196.250927 430.542077 
L 195.697535 390.668877 
L 195.161994 381.859928 
L 194.608602 411.992463 
L 194.073061 387.259644 
L 193.519669 415.232292 
L 192.966277 405.893959 
L 192.430736 394.078109 
L 191.877344 399.181371 
L 191.341803 388.78427 
L 190.788411 383.617482 
L 190.288573 427.873981 
L 189.735181 428.869223 
L 189.181789 383.088098 
L 188.092856 396.449749 
L 187.557315 390.266545 
L 187.003923 394.014583 
L 186.450531 382.431662 
L 185.91499 400.833049 
L 185.361598 381.881103 
L 184.826057 384.125691 
L 184.272665 408.350301 
L 183.772827 407.757391 
L 182.666043 337.984585 
L 182.130502 375.295566 
L 181.57711 375.867301 
L 181.041569 390.139493 
L 180.488177 399.541352 
L 179.934785 398.86374 
L 179.399244 413.199458 
L 178.310311 402.865883 
L 177.756919 379.763567 
L 177.257081 402.738831 
L 176.703689 438.927519 
L 176.150297 379.06478 
L 175.614756 405.576329 
L 175.061364 384.464497 
L 173.972431 405.703381 
L 173.419039 411.780709 
L 172.883498 389.631284 
L 172.330106 375.719074 
L 171.794565 386.878487 
L 171.241173 392.214678 
L 170.723484 378.853027 
L 170.170092 387.59845 
L 169.6167 364.199679 
L 169.081159 384.210392 
L 168.527767 382.706942 
L 167.992226 379.636515 
L 167.438834 359.710503 
L 166.885442 366.550143 
L 166.349901 349.969838 
L 165.796509 379.382411 
L 165.260968 385.54444 
L 164.707576 376.650789 
L 164.207738 410.298434 
L 163.654346 405.893959 
L 163.100954 384.67625 
L 162.565413 375.655548 
L 162.012021 393.061692 
L 161.47648 346.941761 
L 160.923088 349.355752 
L 159.834155 378.027188 
L 159.280763 379.467112 
L 158.745222 374.850884 
L 158.19183 332.606044 
L 157.691992 340.419751 
L 157.1386 329.874423 
L 156.585208 357.868246 
L 156.049667 395.031 
L 155.496275 395.30628 
L 154.960734 387.196118 
L 154.407342 359.562275 
L 153.85395 355.538957 
L 153.318409 367.460684 
L 152.765017 342.558462 
L 152.229476 333.029551 
L 151.676084 341.203239 
L 151.176246 354.84017 
L 150.622854 352.913213 
L 150.069462 364.983167 
L 149.533921 405.152822 
L 148.444988 365.872532 
L 147.891596 363.924399 
L 147.338204 380.144723 
L 146.802663 384.400971 
L 146.249271 364.199679 
L 145.71373 359.138768 
L 145.160338 377.307225 
L 144.642649 374.59678 
L 144.089257 348.381686 
L 144.089257 348.381686 
" clip-path="url(#pf2186ac684)" style="fill: none; stroke: #ff0000; stroke-width: 2; stroke-linecap: square"/>
   </g>
   <g id="patch_3">
    <path d="M 144 512.64 
L 144 69.12 
" style="fill: none; stroke: #bcbcbc; stroke-linejoin: miter; stroke-linecap: square"/>
   </g>
   <g id="patch_4">
    <path d="M 1036.8 512.64 
L 1036.8 69.12 
" style="fill: none; stroke: #bcbcbc; stroke-linejoin: miter; stroke-linecap: square"/>
   </g>
   <g id="patch_5">
    <path d="M 144 512.64 
L 1036.8 512.64 
" style="fill: none; stroke: #bcbcbc; stroke-linejoin: miter; stroke-linecap: square"/>
   </g>
   <g id="patch_6">
    <path d="M 144 69.12 
L 1036.8 69.12 
" style="fill: none; stroke: #bcbcbc; stroke-linejoin: miter; stroke-linecap: square"/>
   </g>
   <g id="text_19">
    <!-- Peak deviation = 1.22°C    -->
    <g transform="translate(899.973689 89.28)scale(0.1 -0.1)">
     <defs>
      <path id="DejaVuSans-50" d="M 1259 4147 
L 1259 2394 
L 2053 2394 
Q 2494 2394 2734 2622 
Q 2975 2850 2975 3272 
Q 2975 3691 2734 3919 
Q 2494 4147 2053 4147 
L 1259 4147 
z
M 628 4666 
L 2053 4666 
Q 2838 4666 3239 4311 
Q 3641 3956 3641 3272 
Q 3641 2581 3239 2228 
Q 2838 1875 2053 1875 
L 1259 1875 
L 1259 0 
L 628 0 
L 628 4666 
z
" transform="scale(0.015625)"/>
      <path id="DejaVuSans-6b" d="M 581 4863 
L 1159 4863 
L 1159 1991 
L 2875 3500 
L 3609 3500 
L 1753 1863 
L 3688 0 
L 2938 0 
L 1159 1709 
L 1159 0 
L 581 0 
L 581 4863 
z
" transform="scale(0.015625)"/>
      <path id="DejaVuSans-64" d="M 2906 2969 
L 2906 4863 
L 3481 4863 
L 3481 0 
L 2906 0 
L 2906 525 
Q 2725 213 2448 61 
Q 2172 -91 1784 -91 
Q 1150 -91 751 415 
Q 353 922 353 1747 
Q 353 2572 751 3078 
Q 1150 3584 1784 3584 
Q 2172 3584 2448 3432 
Q 2725 3281 2906 2969 
z
M 947 1747 
Q 947 1113 1208 752 
Q 1469 391 1925 391 
Q 2381 391 2643 752 
Q 2906 1113 2906 1747 
Q 2906 2381 2643 2742 
Q 2381 3103 1925 3103 
Q 1469 3103 1208 2742 
Q 947 2381 947 1747 
z
" transform="scale(0.015625)"/>
      <path id="DejaVuSans-76" d="M 191 3500 
L 800 3500 
L 1894 563 
L 2988 3500 
L 3597 3500 
L 2284 0 
L 1503 0 
L 191 3500 
z
" transform="scale(0.015625)"/>
      <path id="DejaVuSans-69" d="M 603 3500 
L 1178 3500 
L 1178 0 
L 603 0 
L 603 3500 
z
M 603 4863 
L 1178 4863 
L 1178 4134 
L 603 4134 
L 603 4863 
z
" transform="scale(0.015625)"/>
      <path id="DejaVuSans-3d" d="M 678 2906 
L 4684 2906 
L 4684 2381 
L 678 2381 
L 678 2906 
z
M 678 1631 
L 4684 1631 
L 4684 1100 
L 678 1100 
L 678 1631 
z
" transform="scale(0.015625)"/>
     </defs>
     <use xlink:href="#DejaVuSans-50"/>
     <use xlink:href="#DejaVuSans-65" x="56.677734"/>
     <use xlink:href="#DejaVuSans-61" x="118.201172"/>
     <use xlink:href="#DejaVuSans-6b" x="179.480469"/>
     <use xlink:href="#DejaVuSans-20" x="237.390625"/>
     <use xlink:href="#DejaVuSans-64" x="269.177734"/>
     <use xlink:href="#DejaVuSans-65" x="332.654297"/>
     <use xlink:href="#DejaVuSans-76" x="394.177734"/>
     <use xlink:href="#DejaVuSans-69" x="453.357422"/>
     <use xlink:href="#DejaVuSans-61" x="481.140625"/>
     <use xlink:href="#DejaVuSans-74" x="542.419922"/>
     <use xlink:href="#DejaVuSans-69" x="581.628906"/>
     <use xlink:href="#DejaVuSans-6f" x="609.412109"/>
     <use xlink:href="#DejaVuSans-6e" x="670.59375"/>
     <use xlink:href="#DejaVuSans-20" x="733.972656"/>
     <use xlink:href="#DejaVuSans-3d" x="765.759766"/>
     <use xlink:href="#DejaVuSans-20" x="849.548828"/>
     <use xlink:href="#DejaVuSans-31" x="881.335938"/>
     <use xlink:href="#DejaVuSans-2e" x="944.958984"/>
     <use xlink:href="#DejaVuSans-32" x="976.746094"/>
     <use xlink:href="#DejaVuSans-32" x="1040.369141"/>
     <use xlink:href="#DejaVuSans-b0" x="1103.992188"/>
     <use xlink:href="#DejaVuSans-43" x="1153.992188"/>
     <use xlink:href="#DejaVuSans-20" x="1223.816406"/>
     <use xlink:href="#DejaVuSans-20" x="1255.603516"/>
     <use xlink:href="#DejaVuSans-20" x="1287.390625"/>
    </g>
   </g>
   <g id="text_20">
    <!-- Monthly global land and ocean temperature anomaly, 1880-2016 -->
    <g transform="translate(354.87675 63.12)scale(0.144 -0.144)">
     <defs>
      <path id="DejaVuSans-4d" d="M 628 4666 
L 1569 4666 
L 2759 1491 
L 3956 4666 
L 4897 4666 
L 4897 0 
L 4281 0 
L 4281 4097 
L 3078 897 
L 2444 897 
L 1241 4097 
L 1241 0 
L 628 0 
L 628 4666 
z
" transform="scale(0.015625)"/>
      <path id="DejaVuSans-68" d="M 3513 2113 
L 3513 0 
L 2938 0 
L 2938 2094 
Q 2938 2591 2744 2837 
Q 2550 3084 2163 3084 
Q 1697 3084 1428 2787 
Q 1159 2491 1159 1978 
L 1159 0 
L 581 0 
L 581 4863 
L 1159 4863 
L 1159 2956 
Q 1366 3272 1645 3428 
Q 1925 3584 2291 3584 
Q 2894 3584 3203 3211 
Q 3513 2838 3513 2113 
z
" transform="scale(0.015625)"/>
      <path id="DejaVuSans-67" d="M 2906 1791 
Q 2906 2416 2648 2759 
Q 2391 3103 1925 3103 
Q 1463 3103 1205 2759 
Q 947 2416 947 1791 
Q 947 1169 1205 825 
Q 1463 481 1925 481 
Q 2391 481 2648 825 
Q 2906 1169 2906 1791 
z
M 3481 434 
Q 3481 -459 3084 -895 
Q 2688 -1331 1869 -1331 
Q 1566 -1331 1297 -1286 
Q 1028 -1241 775 -1147 
L 775 -588 
Q 1028 -725 1275 -790 
Q 1522 -856 1778 -856 
Q 2344 -856 2625 -561 
Q 2906 -266 2906 331 
L 2906 616 
Q 2728 306 2450 153 
Q 2172 0 1784 0 
Q 1141 0 747 490 
Q 353 981 353 1791 
Q 353 2603 747 3093 
Q 1141 3584 1784 3584 
Q 2172 3584 2450 3431 
Q 2728 3278 2906 2969 
L 2906 3500 
L 3481 3500 
L 3481 434 
z
" transform="scale(0.015625)"/>
      <path id="DejaVuSans-62" d="M 3116 1747 
Q 3116 2381 2855 2742 
Q 2594 3103 2138 3103 
Q 1681 3103 1420 2742 
Q 1159 2381 1159 1747 
Q 1159 1113 1420 752 
Q 1681 391 2138 391 
Q 2594 391 2855 752 
Q 3116 1113 3116 1747 
z
M 1159 2969 
Q 1341 3281 1617 3432 
Q 1894 3584 2278 3584 
Q 2916 3584 3314 3078 
Q 3713 2572 3713 1747 
Q 3713 922 3314 415 
Q 2916 -91 2278 -91 
Q 1894 -91 1617 61 
Q 1341 213 1159 525 
L 1159 0 
L 581 0 
L 581 4863 
L 1159 4863 
L 1159 2969 
z
" transform="scale(0.015625)"/>
      <path id="DejaVuSans-63" d="M 3122 3366 
L 3122 2828 
Q 2878 2963 2633 3030 
Q 2388 3097 2138 3097 
Q 1578 3097 1268 2742 
Q 959 2388 959 1747 
Q 959 1106 1268 751 
Q 1578 397 2138 397 
Q 2388 397 2633 464 
Q 2878 531 3122 666 
L 3122 134 
Q 2881 22 2623 -34 
Q 2366 -91 2075 -91 
Q 1284 -91 818 406 
Q 353 903 353 1747 
Q 353 2603 823 3093 
Q 1294 3584 2113 3584 
Q 2378 3584 2631 3529 
Q 2884 3475 3122 3366 
z
" transform="scale(0.015625)"/>
      <path id="DejaVuSans-2c" d="M 750 794 
L 1409 794 
L 1409 256 
L 897 -744 
L 494 -744 
L 750 256 
L 750 794 
z
" transform="scale(0.015625)"/>
      <path id="DejaVuSans-2d" d="M 313 2009 
L 1997 2009 
L 1997 1497 
L 313 1497 
L 313 2009 
z
" transform="scale(0.015625)"/>
     </defs>
     <use xlink:href="#DejaVuSans-4d"/>
     <use xlink:href="#DejaVuSans-6f" x="86.279297"/>
     <use xlink:href="#DejaVuSans-6e" x="147.460938"/>
     <use xlink:href="#DejaVuSans-74" x="210.839844"/>
     <use xlink:href="#DejaVuSans-68" x="250.048828"/>
     <use xlink:href="#DejaVuSans-6c" x="313.427734"/>
     <use xlink:href="#DejaVuSans-79" x="341.210938"/>
     <use xlink:href="#DejaVuSans-20" x="400.390625"/>
     <use xlink:href="#DejaVuSans-67" x="432.177734"/>
     <use xlink:href="#DejaVuSans-6c" x="495.654297"/>
     <use xlink:href="#DejaVuSans-6f" x="523.4375"/>
     <use xlink:href="#DejaVuSans-62" x="584.619141"/>
     <use xlink:href="#DejaVuSans-61" x="648.095703"/>
     <use xlink:href="#DejaVuSans-6c" x="709.375"/>
     <use xlink:href="#DejaVuSans-20" x="737.158203"/>
     <use xlink:href="#DejaVuSans-6c" x="768.945312"/>
     <use xlink:href="#DejaVuSans-61" x="796.728516"/>
     <use xlink:href="#DejaVuSans-6e" x="858.007812"/>
     <use xlink:href="#DejaVuSans-64" x="921.386719"/>
     <use xlink:href="#DejaVuSans-20" x="984.863281"/>
     <use xlink:href="#DejaVuSans-61" x="1016.650391"/>
     <use xlink:href="#DejaVuSans-6e" x="1077.929688"/>
     <use xlink:href="#DejaVuSans-64" x="1141.308594"/>
     <use xlink:href="#DejaVuSans-20" x="1204.785156"/>
     <use xlink:href="#DejaVuSans-6f" x="1236.572266"/>
     <use xlink:href="#DejaVuSans-63" x="1297.753906"/>
     <use xlink:href="#DejaVuSans-65" x="1352.734375"/>
     <use xlink:href="#DejaVuSans-61" x="1414.257812"/>
     <use xlink:href="#DejaVuSans-6e" x="1475.537109"/>
     <use xlink:href="#DejaVuSans-20" x="1538.916016"/>
     <use xlink:href="#DejaVuSans-74" x="1570.703125"/>
     <use xlink:href="#DejaVuSans-65" x="1609.912109"/>
     <use xlink:href="#DejaVuSans-6d" x="1671.435547"/>
     <use xlink:href="#DejaVuSans-70" x="1768.847656"/>
     <use xlink:href="#DejaVuSans-65" x="1832.324219"/>
     <use xlink:href="#DejaVuSans-72" x="1893.847656"/>
     <use xlink:href="#DejaVuSans-61" x="1934.960938"/>
     <use xlink:href="#DejaVuSans-74" x="1996.240234"/>
     <use xlink:href="#DejaVuSans-75" x="2035.449219"/>
     <use xlink:href="#DejaVuSans-72" x="2098.828125"/>
     <use xlink:href="#DejaVuSans-65" x="2137.691406"/>
     <use xlink:href="#DejaVuSans-20" x="2199.214844"/>
     <use xlink:href="#DejaVuSans-61" x="2231.001953"/>
     <use xlink:href="#DejaVuSans-6e" x="2292.28125"/>
     <use xlink:href="#DejaVuSans-6f" x="2355.660156"/>
     <use xlink:href="#DejaVuSans-6d" x="2416.841797"/>
     <use xlink:href="#DejaVuSans-61" x="2514.253906"/>
     <use xlink:href="#DejaVuSans-6c" x="2575.533203"/>
     <use xlink:href="#DejaVuSans-79" x="2603.316406"/>
     <use xlink:href="#DejaVuSans-2c" x="2662.496094"/>
     <use xlink:href="#DejaVuSans-20" x="2694.283203"/>
     <use xlink:href="#DejaVuSans-31" x="2726.070312"/>
     <use xlink:href="#DejaVuSans-38" x="2789.693359"/>
     <use xlink:href="#DejaVuSans-38" x="2853.316406"/>
     <use xlink:href="#DejaVuSans-30" x="2916.939453"/>
     <use xlink:href="#DejaVuSans-2d" x="2980.5625"/>
     <use xlink:href="#DejaVuSans-32" x="3016.646484"/>
     <use xlink:href="#DejaVuSans-30" x="3080.269531"/>
     <use xlink:href="#DejaVuSans-31" x="3143.892578"/>
     <use xlink:href="#DejaVuSans-36" x="3207.515625"/>
    </g>
   </g>
  </g>
 </g>
 <defs>
  <clipPath id="pf2186ac684">
   <rect x="144" y="69.12" width="892.8" height="443.52"/>
  </clipPath>
 </defs>
</svg>
